<svg width="772" height="149" viewBox="0 0 772 149" fill="none" xmlns="http://www.w3.org/2000/svg">
<path d="M4.99361 77V19.5455H27.6612C32.0002 19.5455 35.7034 20.3216 38.7706 21.8739C41.8565 23.4076 44.2037 25.5864 45.8121 28.4105C47.4393 31.2159 48.2528 34.5169 48.2528 38.3136C48.2528 42.1289 47.4299 45.4112 45.7841 48.1605C44.1383 50.8911 41.7537 52.9858 38.6303 54.4446C35.5257 55.9034 31.7665 56.6328 27.3526 56.6328H12.1754V46.87H25.3888C27.708 46.87 29.6344 46.5521 31.168 45.9162C32.7016 45.2803 33.8424 44.3265 34.5906 43.0547C35.3574 41.7829 35.7408 40.2025 35.7408 38.3136C35.7408 36.4059 35.3574 34.7975 34.5906 33.4883C33.8424 32.1791 32.6922 31.1879 31.1399 30.5146C29.6063 29.8226 27.6706 29.4766 25.3327 29.4766H17.141V77H4.99361ZM36.0213 50.8537L50.3008 77H36.891L22.9201 50.8537H36.0213ZM88.0053 36.0692C87.7809 33.8062 86.8177 32.0482 85.1158 30.7951C83.4138 29.542 81.104 28.9155 78.1864 28.9155C76.204 28.9155 74.5301 29.196 73.1648 29.7571C71.7995 30.2995 70.7521 31.0569 70.0227 32.0295C69.312 33.002 68.9567 34.1055 68.9567 35.3398C68.9193 36.3685 69.1344 37.2662 69.6019 38.033C70.0882 38.7998 70.7521 39.4638 71.5938 40.0249C72.4354 40.5672 73.4079 41.0442 74.5114 41.4556C75.6148 41.8484 76.7931 42.185 78.0462 42.4656L83.2081 43.6999C85.7143 44.261 88.0147 45.0091 90.1094 45.9442C92.2041 46.8794 94.0182 48.0296 95.5518 49.3949C97.0855 50.7602 98.2731 52.3686 99.1147 54.2202C99.975 56.0717 100.415 58.1945 100.433 60.5884C100.415 64.1045 99.5168 67.1531 97.7401 69.734C95.982 72.2963 93.4384 74.2881 90.1094 75.7095C86.799 77.1122 82.806 77.8136 78.1303 77.8136C73.4921 77.8136 69.4523 77.1029 66.011 75.6815C62.5884 74.2601 59.9139 72.156 57.9876 69.3693C56.0799 66.5639 55.0793 63.0946 54.9858 58.9613H66.7404C66.8713 60.8877 67.4231 62.4961 68.3956 63.7866C69.3868 65.0584 70.7054 66.0215 72.3512 66.6761C74.0157 67.312 75.8954 67.63 77.9901 67.63C80.0473 67.63 81.8335 67.3307 83.3484 66.7322C84.882 66.1338 86.0696 65.3015 86.9112 64.2354C87.7528 63.1694 88.1737 61.9444 88.1737 60.5604C88.1737 59.2699 87.7902 58.1851 87.0234 57.3061C86.2753 56.4271 85.1719 55.679 83.7131 55.0618C82.273 54.4446 80.5056 53.8835 78.4109 53.3786L72.1548 51.8075C67.3108 50.6293 63.4862 48.787 60.6808 46.2809C57.8754 43.7747 56.482 40.3989 56.5007 36.1534C56.482 32.6747 57.4078 29.6355 59.2781 27.0359C61.167 24.4362 63.7573 22.407 67.049 20.9482C70.3407 19.4893 74.0812 18.7599 78.2706 18.7599C82.5348 18.7599 86.2566 19.4893 89.4361 20.9482C92.6342 22.407 95.1217 24.4362 96.8984 27.0359C98.6752 29.6355 99.5916 32.6467 99.6477 36.0692H88.0053ZM158.056 36.0692C157.832 33.8062 156.868 32.0482 155.167 30.7951C153.465 29.542 151.155 28.9155 148.237 28.9155C146.255 28.9155 144.581 29.196 143.216 29.7571C141.85 30.2995 140.803 31.0569 140.074 32.0295C139.363 33.002 139.007 34.1055 139.007 35.3398C138.97 36.3685 139.185 37.2662 139.653 38.033C140.139 38.7998 140.803 39.4638 141.645 40.0249C142.486 40.5672 143.459 41.0442 144.562 41.4556C145.666 41.8484 146.844 42.185 148.097 42.4656L153.259 43.6999C155.765 44.261 158.065 45.0091 160.16 45.9442C162.255 46.8794 164.069 48.0296 165.603 49.3949C167.136 50.7602 168.324 52.3686 169.165 54.2202C170.026 56.0717 170.465 58.1945 170.484 60.5884C170.465 64.1045 169.568 67.1531 167.791 69.734C166.033 72.2963 163.489 74.2881 160.16 75.7095C156.85 77.1122 152.857 77.8136 148.181 77.8136C143.543 77.8136 139.503 77.1029 136.062 75.6815C132.639 74.2601 129.965 72.156 128.038 69.3693C126.131 66.5639 125.13 63.0946 125.037 58.9613H136.791C136.922 60.8877 137.474 62.4961 138.446 63.7866C139.438 65.0584 140.756 66.0215 142.402 66.6761C144.067 67.312 145.946 67.63 148.041 67.63C150.098 67.63 151.884 67.3307 153.399 66.7322C154.933 66.1338 156.12 65.3015 156.962 64.2354C157.804 63.1694 158.224 61.9444 158.224 60.5604C158.224 59.2699 157.841 58.1851 157.074 57.3061C156.326 56.4271 155.223 55.679 153.764 55.0618C152.324 54.4446 150.556 53.8835 148.462 53.3786L142.206 51.8075C137.362 50.6293 133.537 48.787 130.732 46.2809C127.926 43.7747 126.533 40.3989 126.551 36.1534C126.533 32.6747 127.459 29.6355 129.329 27.0359C131.218 24.4362 133.808 22.407 137.1 20.9482C140.391 19.4893 144.132 18.7599 148.321 18.7599C152.586 18.7599 156.307 19.4893 159.487 20.9482C162.685 22.407 165.172 24.4362 166.949 27.0359C168.726 29.6355 169.642 32.6467 169.699 36.0692H158.056ZM197.9 77.8416C193.542 77.8416 189.773 76.9158 186.594 75.0643C183.433 73.194 180.993 70.5943 179.272 67.2653C177.551 63.9175 176.691 60.0367 176.691 55.6229C176.691 51.1716 177.551 47.2815 179.272 43.9524C180.993 40.6046 183.433 38.005 186.594 36.1534C189.773 34.2831 193.542 33.348 197.9 33.348C202.257 33.348 206.017 34.2831 209.177 36.1534C212.357 38.005 214.807 40.6046 216.528 43.9524C218.248 47.2815 219.109 51.1716 219.109 55.6229C219.109 60.0367 218.248 63.9175 216.528 67.2653C214.807 70.5943 212.357 73.194 209.177 75.0643C206.017 76.9158 202.257 77.8416 197.9 77.8416ZM197.956 68.5838C199.938 68.5838 201.594 68.0227 202.921 66.9006C204.249 65.7597 205.25 64.2074 205.923 62.2436C206.615 60.2798 206.961 58.0449 206.961 55.5387C206.961 53.0326 206.615 50.7976 205.923 48.8338C205.25 46.87 204.249 45.3177 202.921 44.1768C201.594 43.036 199.938 42.4656 197.956 42.4656C195.955 42.4656 194.271 43.036 192.906 44.1768C191.56 45.3177 190.54 46.87 189.848 48.8338C189.175 50.7976 188.838 53.0326 188.838 55.5387C188.838 58.0449 189.175 60.2798 189.848 62.2436C190.54 64.2074 191.56 65.7597 192.906 66.9006C194.271 68.0227 195.955 68.5838 197.956 68.5838ZM238.831 19.5455V77H226.88V19.5455H238.831ZM260.692 77.8136C257.942 77.8136 255.492 77.3366 253.341 76.3828C251.191 75.4103 249.489 73.9795 248.236 72.0906C247.001 70.1829 246.384 67.8076 246.384 64.9648C246.384 62.5709 246.824 60.5604 247.703 58.9332C248.582 57.3061 249.779 55.9969 251.294 55.0057C252.808 54.0144 254.529 53.2663 256.455 52.7614C258.401 52.2564 260.439 51.901 262.571 51.6953C265.077 51.4335 267.097 51.1903 268.631 50.9659C270.164 50.7228 271.277 50.3674 271.969 49.8999C272.661 49.4323 273.007 48.7403 273.007 47.8239V47.6555C273.007 45.8788 272.446 44.5041 271.324 43.5316C270.221 42.5591 268.65 42.0728 266.611 42.0728C264.46 42.0728 262.749 42.5497 261.477 43.5036C260.205 44.4387 259.364 45.617 258.952 47.0384L247.899 46.1406C248.46 43.5223 249.564 41.2592 251.209 39.3516C252.855 37.4252 254.978 35.9477 257.578 34.919C260.196 33.8717 263.226 33.348 266.667 33.348C269.061 33.348 271.352 33.6286 273.54 34.1896C275.747 34.7507 277.702 35.6204 279.404 36.7986C281.124 37.9769 282.48 39.4918 283.471 41.3434C284.463 43.1763 284.958 45.3738 284.958 47.9361V77H273.624V71.0245H273.288C272.596 72.3711 271.67 73.5587 270.51 74.5874C269.351 75.5973 267.958 76.3922 266.33 76.9719C264.703 77.533 262.824 77.8136 260.692 77.8136ZM264.114 69.5657C265.872 69.5657 267.425 69.2197 268.771 68.5277C270.118 67.817 271.174 66.8632 271.941 65.6662C272.708 64.4692 273.091 63.1133 273.091 61.5984V57.0256C272.717 57.2687 272.203 57.4931 271.548 57.6989C270.913 57.8859 270.193 58.0636 269.388 58.2319C268.584 58.3815 267.78 58.5218 266.976 58.6527C266.171 58.7649 265.442 58.8678 264.787 58.9613C263.385 59.167 262.16 59.4943 261.112 59.9432C260.065 60.392 259.251 60.9999 258.672 61.7667C258.092 62.5148 257.802 63.4499 257.802 64.5721C257.802 66.1992 258.391 67.4429 259.569 68.3033C260.766 69.1449 262.281 69.5657 264.114 69.5657ZM294.23 77V33.9091H305.816V41.4276H306.265C307.051 38.7531 308.369 36.7332 310.221 35.3679C312.072 33.9839 314.205 33.2919 316.617 33.2919C317.216 33.2919 317.861 33.3293 318.553 33.4041C319.245 33.4789 319.853 33.5818 320.376 33.7127V44.3171C319.815 44.1488 319.039 43.9992 318.048 43.8683C317.057 43.7373 316.15 43.6719 315.327 43.6719C313.569 43.6719 311.998 44.0553 310.614 44.8221C309.248 45.5702 308.164 46.6175 307.359 47.9641C306.574 49.3107 306.181 50.863 306.181 52.6211V77H294.23Z" fill="#1f3366"/>
<path d="M395.757 39.6602H383.47C383.245 38.0704 382.787 36.6584 382.095 35.424C381.403 34.1709 380.515 33.1049 379.43 32.2259C378.345 31.3468 377.092 30.6735 375.671 30.206C374.268 29.7384 372.744 29.5046 371.098 29.5046C368.124 29.5046 365.534 30.2434 363.327 31.7209C361.12 33.1797 359.409 35.3118 358.193 38.1172C356.978 40.9039 356.37 44.2891 356.37 48.2727C356.37 52.3686 356.978 55.8099 358.193 58.5966C359.428 61.3833 361.148 63.4873 363.355 64.9087C365.562 66.3301 368.115 67.0408 371.014 67.0408C372.641 67.0408 374.147 66.8258 375.531 66.3956C376.933 65.9654 378.177 65.3389 379.262 64.516C380.346 63.6744 381.244 62.6551 381.955 61.4581C382.684 60.2611 383.189 58.8958 383.47 57.3622L395.757 57.4183C395.44 60.0554 394.645 62.599 393.373 65.049C392.12 67.4804 390.427 69.6592 388.295 71.5856C386.182 73.4933 383.657 75.0082 380.721 76.1303C377.803 77.2338 374.502 77.7855 370.817 77.7855C365.693 77.7855 361.111 76.6259 357.071 74.3068C353.05 71.9877 349.871 68.6306 347.533 64.2354C345.214 59.8403 344.054 54.5194 344.054 48.2727C344.054 42.0073 345.232 36.6771 347.589 32.282C349.945 27.8868 353.143 24.5391 357.183 22.2386C361.223 19.9195 365.768 18.7599 370.817 18.7599C374.147 18.7599 377.232 19.2275 380.075 20.1626C382.937 21.0978 385.471 22.4631 387.678 24.2585C389.885 26.0353 391.68 28.2141 393.064 30.7951C394.467 33.3761 395.365 36.3311 395.757 39.6602ZM413.291 77H400.274L420.108 19.5455H435.762L455.569 77H442.551L428.16 32.6747H427.711L413.291 77ZM412.478 54.4165H443.225V63.8988H412.478V54.4165ZM482.851 77H462.484V19.5455H483.019C488.798 19.5455 493.773 20.6957 497.944 22.9961C502.115 25.2778 505.322 28.5601 507.567 32.843C509.83 37.1259 510.961 42.2505 510.961 48.2166C510.961 54.2015 509.83 59.3447 507.567 63.6463C505.322 67.9479 502.096 71.2489 497.888 73.5494C493.699 75.8498 488.686 77 482.851 77ZM474.631 66.592H482.346C485.937 66.592 488.957 65.9561 491.407 64.6843C493.876 63.3938 495.728 61.402 496.962 58.7088C498.215 55.9969 498.842 52.4995 498.842 48.2166C498.842 43.9711 498.215 40.5018 496.962 37.8086C495.728 35.1154 493.886 33.1329 491.436 31.8611C488.986 30.5894 485.965 29.9535 482.374 29.9535H474.631V66.592ZM576.341 38.1172C575.948 36.7519 575.396 35.5456 574.686 34.4982C573.975 33.4322 573.105 32.5344 572.077 31.805C571.067 31.0569 569.907 30.4865 568.598 30.0938C567.308 29.701 565.877 29.5046 564.306 29.5046C561.369 29.5046 558.788 30.234 556.563 31.6928C554.356 33.1516 552.635 35.2744 551.401 38.0611C550.167 40.8291 549.549 44.2143 549.549 48.2166C549.549 52.219 550.157 55.6229 551.373 58.4283C552.589 61.2337 554.309 63.3751 556.535 64.8526C558.76 66.3114 561.388 67.0408 564.418 67.0408C567.167 67.0408 569.514 66.5546 571.46 65.582C573.423 64.5908 574.92 63.1974 575.948 61.402C576.996 59.6065 577.519 57.4838 577.519 55.0337L579.988 55.3984H565.175V46.2528H589.218V53.4908C589.218 58.5405 588.152 62.8795 586.02 66.5078C583.887 70.1174 580.951 72.9041 577.211 74.8679C573.47 76.813 569.187 77.7855 564.362 77.7855C558.975 77.7855 554.244 76.5979 550.167 74.2227C546.089 71.8287 542.91 68.4342 540.628 64.0391C538.365 59.6252 537.234 54.3885 537.234 48.3288C537.234 43.6719 537.907 39.5199 539.254 35.8729C540.619 32.2071 542.527 29.1025 544.977 26.5589C547.427 24.0154 550.279 22.0797 553.533 20.7518C556.787 19.4239 560.313 18.7599 564.109 18.7599C567.364 18.7599 570.393 19.2369 573.199 20.1907C576.004 21.1258 578.492 22.4537 580.661 24.1744C582.849 25.895 584.636 27.9429 586.02 30.3182C587.404 32.6747 588.292 35.2744 588.685 38.1172H576.341ZM598.118 77V33.9091H609.704V41.4276H610.153C610.938 38.7531 612.257 36.7332 614.109 35.3679C615.96 33.9839 618.092 33.2919 620.505 33.2919C621.103 33.2919 621.749 33.3293 622.441 33.4041C623.133 33.4789 623.74 33.5818 624.264 33.7127V44.3171C623.703 44.1488 622.927 43.9992 621.936 43.8683C620.944 43.7373 620.037 43.6719 619.214 43.6719C617.456 43.6719 615.885 44.0553 614.501 44.8221C613.136 45.5702 612.051 46.6175 611.247 47.9641C610.462 49.3107 610.069 50.863 610.069 52.6211V77H598.118ZM647.907 77.8416C643.549 77.8416 639.78 76.9158 636.601 75.0643C633.44 73.194 630.999 70.5943 629.279 67.2653C627.558 63.9175 626.698 60.0367 626.698 55.6229C626.698 51.1716 627.558 47.2815 629.279 43.9524C630.999 40.6046 633.44 38.005 636.601 36.1534C639.78 34.2831 643.549 33.348 647.907 33.348C652.264 33.348 656.024 34.2831 659.184 36.1534C662.364 38.005 664.814 40.6046 666.534 43.9524C668.255 47.2815 669.115 51.1716 669.115 55.6229C669.115 60.0367 668.255 63.9175 666.534 67.2653C664.814 70.5943 662.364 73.194 659.184 75.0643C656.024 76.9158 652.264 77.8416 647.907 77.8416ZM647.963 68.5838C649.945 68.5838 651.6 68.0227 652.928 66.9006C654.256 65.7597 655.257 64.2074 655.93 62.2436C656.622 60.2798 656.968 58.0449 656.968 55.5387C656.968 53.0326 656.622 50.7976 655.93 48.8338C655.257 46.87 654.256 45.3177 652.928 44.1768C651.6 43.036 649.945 42.4656 647.963 42.4656C645.962 42.4656 644.278 43.036 642.913 44.1768C641.566 45.3177 640.547 46.87 639.855 48.8338C639.182 50.7976 638.845 53.0326 638.845 55.5387C638.845 58.0449 639.182 60.2798 639.855 62.2436C640.547 64.2074 641.566 65.7597 642.913 66.9006C644.278 68.0227 645.962 68.5838 647.963 68.5838ZM704.52 58.6527V33.9091H716.471V77H704.996V69.1729H704.548C703.575 71.6978 701.957 73.727 699.694 75.2607C697.45 76.7943 694.71 77.5611 691.474 77.5611C688.594 77.5611 686.06 76.9065 683.872 75.5973C681.684 74.2881 679.972 72.4272 678.738 70.0146C677.522 67.6019 676.905 64.7124 676.886 61.3459V33.9091H688.837V59.2138C688.856 61.7573 689.539 63.7679 690.885 65.2454C692.232 66.7229 694.037 67.4616 696.3 67.4616C697.74 67.4616 699.086 67.1344 700.339 66.4798C701.593 65.8065 702.603 64.8152 703.369 63.506C704.155 62.1969 704.538 60.5791 704.52 58.6527ZM726.03 93.1591V33.9091H737.813V41.147H738.346C738.869 39.9875 739.627 38.8092 740.618 37.6122C741.628 36.3965 742.937 35.3866 744.546 34.5824C746.173 33.7595 748.193 33.348 750.605 33.348C753.747 33.348 756.646 34.1709 759.302 35.8168C761.958 37.4439 764.08 39.9033 765.67 43.195C767.26 46.4679 768.055 50.5732 768.055 55.5107C768.055 60.3172 767.279 64.3757 765.726 67.6861C764.193 70.9777 762.098 73.4746 759.442 75.1765C756.805 76.8597 753.85 77.7013 750.577 77.7013C748.258 77.7013 746.285 77.3179 744.658 76.5511C743.049 75.7843 741.731 74.8211 740.702 73.6616C739.674 72.4833 738.888 71.2957 738.346 70.0987H737.981V93.1591H726.03ZM737.728 55.4545C737.728 58.0168 738.084 60.2518 738.794 62.1594C739.505 64.0671 740.534 65.554 741.88 66.62C743.227 67.6674 744.863 68.1911 746.79 68.1911C748.735 68.1911 750.381 67.658 751.727 66.592C753.074 65.5072 754.093 64.011 754.785 62.1033C755.496 60.177 755.851 57.9607 755.851 55.4545C755.851 52.9671 755.505 50.7789 754.813 48.8899C754.121 47.0009 753.102 45.5234 751.755 44.4574C750.409 43.3913 748.754 42.8583 746.79 42.8583C744.845 42.8583 743.199 43.3726 741.852 44.4013C740.524 45.4299 739.505 46.8887 738.794 48.7777C738.084 50.6667 737.728 52.8923 737.728 55.4545Z" fill="#9c0404ff"/>
<path d="M4.99361 77V19.5455H27.6612C32.0002 19.5455 35.7034 20.3216 38.7706 21.8739C41.8565 23.4076 44.2037 25.5864 45.8121 28.4105C47.4393 31.2159 48.2528 34.5169 48.2528 38.3136C48.2528 42.1289 47.4299 45.4112 45.7841 48.1605C44.1383 50.8911 41.7537 52.9858 38.6303 54.4446C35.5257 55.9034 31.7665 56.6328 27.3526 56.6328H12.1754V46.87H25.3888C27.708 46.87 29.6344 46.5521 31.168 45.9162C32.7016 45.2803 33.8424 44.3265 34.5906 43.0547C35.3574 41.7829 35.7408 40.2025 35.7408 38.3136C35.7408 36.4059 35.3574 34.7975 34.5906 33.4883C33.8424 32.1791 32.6922 31.1879 31.1399 30.5146C29.6063 29.8226 27.6706 29.4766 25.3327 29.4766H17.141V77H4.99361ZM36.0213 50.8537L50.3008 77H36.891L22.9201 50.8537H36.0213ZM88.0053 36.0692C87.7809 33.8062 86.8177 32.0482 85.1158 30.7951C83.4138 29.542 81.104 28.9155 78.1864 28.9155C76.204 28.9155 74.5301 29.196 73.1648 29.7571C71.7995 30.2995 70.7521 31.0569 70.0227 32.0295C69.312 33.002 68.9567 34.1055 68.9567 35.3398C68.9193 36.3685 69.1344 37.2662 69.6019 38.033C70.0882 38.7998 70.7521 39.4638 71.5938 40.0249C72.4354 40.5672 73.4079 41.0442 74.5114 41.4556C75.6148 41.8484 76.7931 42.185 78.0462 42.4656L83.2081 43.6999C85.7143 44.261 88.0147 45.0091 90.1094 45.9442C92.2041 46.8794 94.0182 48.0296 95.5518 49.3949C97.0855 50.7602 98.2731 52.3686 99.1147 54.2202C99.975 56.0717 100.415 58.1945 100.433 60.5884C100.415 64.1045 99.5168 67.1531 97.7401 69.734C95.982 72.2963 93.4384 74.2881 90.1094 75.7095C86.799 77.1122 82.806 77.8136 78.1303 77.8136C73.4921 77.8136 69.4523 77.1029 66.011 75.6815C62.5884 74.2601 59.9139 72.156 57.9876 69.3693C56.0799 66.5639 55.0793 63.0946 54.9858 58.9613H66.7404C66.8713 60.8877 67.4231 62.4961 68.3956 63.7866C69.3868 65.0584 70.7054 66.0215 72.3512 66.6761C74.0157 67.312 75.8954 67.63 77.9901 67.63C80.0473 67.63 81.8335 67.3307 83.3484 66.7322C84.882 66.1338 86.0696 65.3015 86.9112 64.2354C87.7528 63.1694 88.1737 61.9444 88.1737 60.5604C88.1737 59.2699 87.7902 58.1851 87.0234 57.3061C86.2753 56.4271 85.1719 55.679 83.7131 55.0618C82.273 54.4446 80.5056 53.8835 78.4109 53.3786L72.1548 51.8075C67.3108 50.6293 63.4862 48.787 60.6808 46.2809C57.8754 43.7747 56.482 40.3989 56.5007 36.1534C56.482 32.6747 57.4078 29.6355 59.2781 27.0359C61.167 24.4362 63.7573 22.407 67.049 20.9482C70.3407 19.4893 74.0812 18.7599 78.2706 18.7599C82.5348 18.7599 86.2566 19.4893 89.4361 20.9482C92.6342 22.407 95.1217 24.4362 96.8984 27.0359C98.6752 29.6355 99.5916 32.6467 99.6477 36.0692H88.0053ZM158.056 36.0692C157.832 33.8062 156.868 32.0482 155.167 30.7951C153.465 29.542 151.155 28.9155 148.237 28.9155C146.255 28.9155 144.581 29.196 143.216 29.7571C141.85 30.2995 140.803 31.0569 140.074 32.0295C139.363 33.002 139.007 34.1055 139.007 35.3398C138.97 36.3685 139.185 37.2662 139.653 38.033C140.139 38.7998 140.803 39.4638 141.645 40.0249C142.486 40.5672 143.459 41.0442 144.562 41.4556C145.666 41.8484 146.844 42.185 148.097 42.4656L153.259 43.6999C155.765 44.261 158.065 45.0091 160.16 45.9442C162.255 46.8794 164.069 48.0296 165.603 49.3949C167.136 50.7602 168.324 52.3686 169.165 54.2202C170.026 56.0717 170.465 58.1945 170.484 60.5884C170.465 64.1045 169.568 67.1531 167.791 69.734C166.033 72.2963 163.489 74.2881 160.16 75.7095C156.85 77.1122 152.857 77.8136 148.181 77.8136C143.543 77.8136 139.503 77.1029 136.062 75.6815C132.639 74.2601 129.965 72.156 128.038 69.3693C126.131 66.5639 125.13 63.0946 125.037 58.9613H136.791C136.922 60.8877 137.474 62.4961 138.446 63.7866C139.438 65.0584 140.756 66.0215 142.402 66.6761C144.067 67.312 145.946 67.63 148.041 67.63C150.098 67.63 151.884 67.3307 153.399 66.7322C154.933 66.1338 156.12 65.3015 156.962 64.2354C157.804 63.1694 158.224 61.9444 158.224 60.5604C158.224 59.2699 157.841 58.1851 157.074 57.3061C156.326 56.4271 155.223 55.679 153.764 55.0618C152.324 54.4446 150.556 53.8835 148.462 53.3786L142.206 51.8075C137.362 50.6293 133.537 48.787 130.732 46.2809C127.926 43.7747 126.533 40.3989 126.551 36.1534C126.533 32.6747 127.459 29.6355 129.329 27.0359C131.218 24.4362 133.808 22.407 137.1 20.9482C140.391 19.4893 144.132 18.7599 148.321 18.7599C152.586 18.7599 156.307 19.4893 159.487 20.9482C162.685 22.407 165.172 24.4362 166.949 27.0359C168.726 29.6355 169.642 32.6467 169.699 36.0692H158.056ZM197.9 77.8416C193.542 77.8416 189.773 76.9158 186.594 75.0643C183.433 73.194 180.993 70.5943 179.272 67.2653C177.551 63.9175 176.691 60.0367 176.691 55.6229C176.691 51.1716 177.551 47.2815 179.272 43.9524C180.993 40.6046 183.433 38.005 186.594 36.1534C189.773 34.2831 193.542 33.348 197.9 33.348C202.257 33.348 206.017 34.2831 209.177 36.1534C212.357 38.005 214.807 40.6046 216.528 43.9524C218.248 47.2815 219.109 51.1716 219.109 55.6229C219.109 60.0367 218.248 63.9175 216.528 67.2653C214.807 70.5943 212.357 73.194 209.177 75.0643C206.017 76.9158 202.257 77.8416 197.9 77.8416ZM197.956 68.5838C199.938 68.5838 201.594 68.0227 202.921 66.9006C204.249 65.7597 205.25 64.2074 205.923 62.2436C206.615 60.2798 206.961 58.0449 206.961 55.5387C206.961 53.0326 206.615 50.7976 205.923 48.8338C205.25 46.87 204.249 45.3177 202.921 44.1768C201.594 43.036 199.938 42.4656 197.956 42.4656C195.955 42.4656 194.271 43.036 192.906 44.1768C191.56 45.3177 190.54 46.87 189.848 48.8338C189.175 50.7976 188.838 53.0326 188.838 55.5387C188.838 58.0449 189.175 60.2798 189.848 62.2436C190.54 64.2074 191.56 65.7597 192.906 66.9006C194.271 68.0227 195.955 68.5838 197.956 68.5838ZM238.831 19.5455V77H226.88V19.5455H238.831ZM260.692 77.8136C257.942 77.8136 255.492 77.3366 253.341 76.3828C251.191 75.4103 249.489 73.9795 248.236 72.0906C247.001 70.1829 246.384 67.8076 246.384 64.9648C246.384 62.5709 246.824 60.5604 247.703 58.9332C248.582 57.3061 249.779 55.9969 251.294 55.0057C252.808 54.0144 254.529 53.2663 256.455 52.7614C258.401 52.2564 260.439 51.901 262.571 51.6953C265.077 51.4335 267.097 51.1903 268.631 50.9659C270.164 50.7228 271.277 50.3674 271.969 49.8999C272.661 49.4323 273.007 48.7403 273.007 47.8239V47.6555C273.007 45.8788 272.446 44.5041 271.324 43.5316C270.221 42.5591 268.65 42.0728 266.611 42.0728C264.46 42.0728 262.749 42.5497 261.477 43.5036C260.205 44.4387 259.364 45.617 258.952 47.0384L247.899 46.1406C248.46 43.5223 249.564 41.2592 251.209 39.3516C252.855 37.4252 254.978 35.9477 257.578 34.919C260.196 33.8717 263.226 33.348 266.667 33.348C269.061 33.348 271.352 33.6286 273.54 34.1896C275.747 34.7507 277.702 35.6204 279.404 36.7986C281.124 37.9769 282.48 39.4918 283.471 41.3434C284.463 43.1763 284.958 45.3738 284.958 47.9361V77H273.624V71.0245H273.288C272.596 72.3711 271.67 73.5587 270.51 74.5874C269.351 75.5973 267.958 76.3922 266.33 76.9719C264.703 77.533 262.824 77.8136 260.692 77.8136ZM264.114 69.5657C265.872 69.5657 267.425 69.2197 268.771 68.5277C270.118 67.817 271.174 66.8632 271.941 65.6662C272.708 64.4692 273.091 63.1133 273.091 61.5984V57.0256C272.717 57.2687 272.203 57.4931 271.548 57.6989C270.913 57.8859 270.193 58.0636 269.388 58.2319C268.584 58.3815 267.78 58.5218 266.976 58.6527C266.171 58.7649 265.442 58.8678 264.787 58.9613C263.385 59.167 262.16 59.4943 261.112 59.9432C260.065 60.392 259.251 60.9999 258.672 61.7667C258.092 62.5148 257.802 63.4499 257.802 64.5721C257.802 66.1992 258.391 67.4429 259.569 68.3033C260.766 69.1449 262.281 69.5657 264.114 69.5657ZM294.23 77V33.9091H305.816V41.4276H306.265C307.051 38.7531 308.369 36.7332 310.221 35.3679C312.072 33.9839 314.205 33.2919 316.617 33.2919C317.216 33.2919 317.861 33.3293 318.553 33.4041C319.245 33.4789 319.853 33.5818 320.376 33.7127V44.3171C319.815 44.1488 319.039 43.9992 318.048 43.8683C317.057 43.7373 316.15 43.6719 315.327 43.6719C313.569 43.6719 311.998 44.0553 310.614 44.8221C309.248 45.5702 308.164 46.6175 307.359 47.9641C306.574 49.3107 306.181 50.863 306.181 52.6211V77H294.23Z" fill="#1f3366"/>
<path d="M395.757 39.6602H383.47C383.245 38.0704 382.787 36.6584 382.095 35.424C381.403 34.1709 380.515 33.1049 379.43 32.2259C378.345 31.3468 377.092 30.6735 375.671 30.206C374.268 29.7384 372.744 29.5046 371.098 29.5046C368.124 29.5046 365.534 30.2434 363.327 31.7209C361.12 33.1797 359.409 35.3118 358.193 38.1172C356.978 40.9039 356.37 44.2891 356.37 48.2727C356.37 52.3686 356.978 55.8099 358.193 58.5966C359.428 61.3833 361.148 63.4873 363.355 64.9087C365.562 66.3301 368.115 67.0408 371.014 67.0408C372.641 67.0408 374.147 66.8258 375.531 66.3956C376.933 65.9654 378.177 65.3389 379.262 64.516C380.346 63.6744 381.244 62.6551 381.955 61.4581C382.684 60.2611 383.189 58.8958 383.47 57.3622L395.757 57.4183C395.44 60.0554 394.645 62.599 393.373 65.049C392.12 67.4804 390.427 69.6592 388.295 71.5856C386.182 73.4933 383.657 75.0082 380.721 76.1303C377.803 77.2338 374.502 77.7855 370.817 77.7855C365.693 77.7855 361.111 76.6259 357.071 74.3068C353.05 71.9877 349.871 68.6306 347.533 64.2354C345.214 59.8403 344.054 54.5194 344.054 48.2727C344.054 42.0073 345.232 36.6771 347.589 32.282C349.945 27.8868 353.143 24.5391 357.183 22.2386C361.223 19.9195 365.768 18.7599 370.817 18.7599C374.147 18.7599 377.232 19.2275 380.075 20.1626C382.937 21.0978 385.471 22.4631 387.678 24.2585C389.885 26.0353 391.68 28.2141 393.064 30.7951C394.467 33.3761 395.365 36.3311 395.757 39.6602ZM413.291 77H400.274L420.108 19.5455H435.762L455.569 77H442.551L428.16 32.6747H427.711L413.291 77ZM412.478 54.4165H443.225V63.8988H412.478V54.4165ZM482.851 77H462.484V19.5455H483.019C488.798 19.5455 493.773 20.6957 497.944 22.9961C502.115 25.2778 505.322 28.5601 507.567 32.843C509.83 37.1259 510.961 42.2505 510.961 48.2166C510.961 54.2015 509.83 59.3447 507.567 63.6463C505.322 67.9479 502.096 71.2489 497.888 73.5494C493.699 75.8498 488.686 77 482.851 77ZM474.631 66.592H482.346C485.937 66.592 488.957 65.9561 491.407 64.6843C493.876 63.3938 495.728 61.402 496.962 58.7088C498.215 55.9969 498.842 52.4995 498.842 48.2166C498.842 43.9711 498.215 40.5018 496.962 37.8086C495.728 35.1154 493.886 33.1329 491.436 31.8611C488.986 30.5894 485.965 29.9535 482.374 29.9535H474.631V66.592ZM576.341 38.1172C575.948 36.7519 575.396 35.5456 574.686 34.4982C573.975 33.4322 573.105 32.5344 572.077 31.805C571.067 31.0569 569.907 30.4865 568.598 30.0938C567.308 29.701 565.877 29.5046 564.306 29.5046C561.369 29.5046 558.788 30.234 556.563 31.6928C554.356 33.1516 552.635 35.2744 551.401 38.0611C550.167 40.8291 549.549 44.2143 549.549 48.2166C549.549 52.219 550.157 55.6229 551.373 58.4283C552.589 61.2337 554.309 63.3751 556.535 64.8526C558.76 66.3114 561.388 67.0408 564.418 67.0408C567.167 67.0408 569.514 66.5546 571.46 65.582C573.423 64.5908 574.92 63.1974 575.948 61.402C576.996 59.6065 577.519 57.4838 577.519 55.0337L579.988 55.3984H565.175V46.2528H589.218V53.4908C589.218 58.5405 588.152 62.8795 586.02 66.5078C583.887 70.1174 580.951 72.9041 577.211 74.8679C573.47 76.813 569.187 77.7855 564.362 77.7855C558.975 77.7855 554.244 76.5979 550.167 74.2227C546.089 71.8287 542.91 68.4342 540.628 64.0391C538.365 59.6252 537.234 54.3885 537.234 48.3288C537.234 43.6719 537.907 39.5199 539.254 35.8729C540.619 32.2071 542.527 29.1025 544.977 26.5589C547.427 24.0154 550.279 22.0797 553.533 20.7518C556.787 19.4239 560.313 18.7599 564.109 18.7599C567.364 18.7599 570.393 19.2369 573.199 20.1907C576.004 21.1258 578.492 22.4537 580.661 24.1744C582.849 25.895 584.636 27.9429 586.02 30.3182C587.404 32.6747 588.292 35.2744 588.685 38.1172H576.341ZM598.118 77V33.9091H609.704V41.4276H610.153C610.938 38.7531 612.257 36.7332 614.109 35.3679C615.96 33.9839 618.092 33.2919 620.505 33.2919C621.103 33.2919 621.749 33.3293 622.441 33.4041C623.133 33.4789 623.74 33.5818 624.264 33.7127V44.3171C623.703 44.1488 622.927 43.9992 621.936 43.8683C620.944 43.7373 620.037 43.6719 619.214 43.6719C617.456 43.6719 615.885 44.0553 614.501 44.8221C613.136 45.5702 612.051 46.6175 611.247 47.9641C610.462 49.3107 610.069 50.863 610.069 52.6211V77H598.118ZM647.907 77.8416C643.549 77.8416 639.78 76.9158 636.601 75.0643C633.44 73.194 630.999 70.5943 629.279 67.2653C627.558 63.9175 626.698 60.0367 626.698 55.6229C626.698 51.1716 627.558 47.2815 629.279 43.9524C630.999 40.6046 633.44 38.005 636.601 36.1534C639.78 34.2831 643.549 33.348 647.907 33.348C652.264 33.348 656.024 34.2831 659.184 36.1534C662.364 38.005 664.814 40.6046 666.534 43.9524C668.255 47.2815 669.115 51.1716 669.115 55.6229C669.115 60.0367 668.255 63.9175 666.534 67.2653C664.814 70.5943 662.364 73.194 659.184 75.0643C656.024 76.9158 652.264 77.8416 647.907 77.8416ZM647.963 68.5838C649.945 68.5838 651.6 68.0227 652.928 66.9006C654.256 65.7597 655.257 64.2074 655.93 62.2436C656.622 60.2798 656.968 58.0449 656.968 55.5387C656.968 53.0326 656.622 50.7976 655.93 48.8338C655.257 46.87 654.256 45.3177 652.928 44.1768C651.6 43.036 649.945 42.4656 647.963 42.4656C645.962 42.4656 644.278 43.036 642.913 44.1768C641.566 45.3177 640.547 46.87 639.855 48.8338C639.182 50.7976 638.845 53.0326 638.845 55.5387C638.845 58.0449 639.182 60.2798 639.855 62.2436C640.547 64.2074 641.566 65.7597 642.913 66.9006C644.278 68.0227 645.962 68.5838 647.963 68.5838ZM704.52 58.6527V33.9091H716.471V77H704.996V69.1729H704.548C703.575 71.6978 701.957 73.727 699.694 75.2607C697.45 76.7943 694.71 77.5611 691.474 77.5611C688.594 77.5611 686.06 76.9065 683.872 75.5973C681.684 74.2881 679.972 72.4272 678.738 70.0146C677.522 67.6019 676.905 64.7124 676.886 61.3459V33.9091H688.837V59.2138C688.856 61.7573 689.539 63.7679 690.885 65.2454C692.232 66.7229 694.037 67.4616 696.3 67.4616C697.74 67.4616 699.086 67.1344 700.339 66.4798C701.593 65.8065 702.603 64.8152 703.369 63.506C704.155 62.1969 704.538 60.5791 704.52 58.6527ZM726.03 93.1591V33.9091H737.813V41.147H738.346C738.869 39.9875 739.627 38.8092 740.618 37.6122C741.628 36.3965 742.937 35.3866 744.546 34.5824C746.173 33.7595 748.193 33.348 750.605 33.348C753.747 33.348 756.646 34.1709 759.302 35.8168C761.958 37.4439 764.08 39.9033 765.67 43.195C767.26 46.4679 768.055 50.5732 768.055 55.5107C768.055 60.3172 767.279 64.3757 765.726 67.6861C764.193 70.9777 762.098 73.4746 759.442 75.1765C756.805 76.8597 753.85 77.7013 750.577 77.7013C748.258 77.7013 746.285 77.3179 744.658 76.5511C743.049 75.7843 741.731 74.8211 740.702 73.6616C739.674 72.4833 738.888 71.2957 738.346 70.0987H737.981V93.1591H726.03ZM737.728 55.4545C737.728 58.0168 738.084 60.2518 738.794 62.1594C739.505 64.0671 740.534 65.554 741.88 66.62C743.227 67.6674 744.863 68.1911 746.79 68.1911C748.735 68.1911 750.381 67.658 751.727 66.592C753.074 65.5072 754.093 64.011 754.785 62.1033C755.496 60.177 755.851 57.9607 755.851 55.4545C755.851 52.9671 755.505 50.7789 754.813 48.8899C754.121 47.0009 753.102 45.5234 751.755 44.4574C750.409 43.3913 748.754 42.8583 746.79 42.8583C744.845 42.8583 743.199 43.3726 741.852 44.4013C740.524 45.4299 739.505 46.8887 738.794 48.7777C738.084 50.6667 737.728 52.8923 737.728 55.4545Z" fill="#9c0404ff"/>
<path d="M26.445 142.73L14.921 127.121L20.296 123.38L31.691 138.86L26.445 142.73ZM17.458 138.43C15.1933 138.43 13.115 138.043 11.223 137.269C9.331 136.495 7.68267 135.406 6.278 134.001C4.87333 132.596 3.784 130.948 3.01 129.056C2.236 127.164 1.849 125.086 1.849 122.821C1.849 120.556 2.236 118.478 3.01 116.586C3.784 114.694 4.87333 113.046 6.278 111.641C7.68267 110.236 9.331 109.147 11.223 108.373C13.115 107.599 15.1933 107.212 17.458 107.212C19.7227 107.212 21.801 107.599 23.693 108.373C25.585 109.147 27.2333 110.236 28.638 111.641C30.0427 113.046 31.1177 114.694 31.863 116.586C32.637 118.478 33.024 120.556 33.024 122.821C33.024 125.057 32.637 127.135 31.863 129.056C31.1177 130.948 30.0427 132.596 28.638 134.001C27.2333 135.406 25.585 136.495 23.693 137.269C21.801 138.043 19.7227 138.43 17.458 138.43ZM17.458 131.55C18.6333 131.55 19.7083 131.335 20.683 130.905C21.6863 130.475 22.5463 129.873 23.263 129.099C24.0083 128.296 24.5817 127.365 24.983 126.304C25.3843 125.243 25.585 124.082 25.585 122.821C25.585 121.56 25.3843 120.399 24.983 119.338C24.5817 118.277 24.0083 117.36 23.263 116.586C22.5463 115.783 21.6863 115.167 20.683 114.737C19.7083 114.307 18.6333 114.092 17.458 114.092C16.2827 114.092 15.1933 114.307 14.19 114.737C13.2153 115.167 12.3553 115.783 11.61 116.586C10.8647 117.36 10.2913 118.277 9.89 119.338C9.51733 120.399 9.331 121.56 9.331 122.821C9.331 124.082 9.51733 125.258 9.89 126.347C10.2913 127.408 10.8647 128.325 11.61 129.099C12.3553 129.873 13.2153 130.475 14.19 130.905C15.1933 131.335 16.2827 131.55 17.458 131.55ZM51.3645 138.258C48.8705 138.258 46.6488 137.756 44.6995 136.753C42.7502 135.721 41.2165 134.316 40.0985 132.539C39.0092 130.762 38.4645 128.726 38.4645 126.433V107.9H45.8605V126.046C45.8605 127.135 46.1042 128.124 46.5915 129.013C47.0788 129.873 47.7382 130.561 48.5695 131.077C49.4008 131.564 50.3325 131.808 51.3645 131.808C52.4538 131.808 53.4142 131.564 54.2455 131.077C55.1055 130.561 55.7935 129.873 56.3095 129.013C56.8255 128.124 57.0835 127.135 57.0835 126.046V107.9H64.2215V126.433C64.2215 128.726 63.6625 130.762 62.5445 132.539C61.4552 134.316 59.9358 135.721 57.9865 136.753C56.0372 137.756 53.8298 138.258 51.3645 138.258ZM66.8925 138L78.8035 107.9H84.9955L96.8205 138H89.4245L83.7485 122.735C83.5192 122.133 83.2899 121.488 83.0605 120.8C82.8312 120.112 82.6019 119.41 82.3725 118.693C82.1432 117.948 81.9139 117.231 81.6845 116.543C81.4839 115.826 81.3119 115.167 81.1685 114.565L82.4585 114.522C82.2865 115.239 82.0859 115.941 81.8565 116.629C81.6559 117.317 81.4409 118.005 81.2115 118.693C81.0109 119.352 80.7815 120.026 80.5235 120.714C80.2655 121.373 80.0219 122.061 79.7925 122.778L74.1165 138H66.8925ZM72.5685 132.238L74.8475 126.734H88.6935L90.9295 132.238H72.5685ZM100.576 138V107.9H107.886V131.55H121.302V138H100.576ZM126.177 138V131.851H131.251V114.049H126.177V107.9H143.678V114.049H138.561V131.851H143.678V138H126.177ZM157.167 138V114.35H148.223V107.9H173.636V114.35H164.477V138H157.167ZM187.01 138V122.993L187.311 125.1L175.142 107.9H183.441L192.729 121.23L188.945 121.101L197.33 107.9H205.371L193.718 125.573L194.363 122.649V138H187.01ZM222.647 138V107.9H235.246C237.454 107.9 239.475 108.273 241.309 109.018C243.144 109.735 244.721 110.767 246.039 112.114C247.387 113.461 248.419 115.052 249.135 116.887C249.852 118.722 250.21 120.743 250.21 122.95C250.21 125.157 249.852 127.193 249.135 129.056C248.419 130.891 247.387 132.482 246.039 133.829C244.721 135.148 243.144 136.18 241.309 136.925C239.475 137.642 237.454 138 235.246 138H222.647ZM229.957 133.012L228.968 131.55H235.031C236.235 131.55 237.31 131.349 238.256 130.948C239.202 130.518 240.005 129.93 240.664 129.185C241.352 128.44 241.883 127.537 242.255 126.476C242.628 125.415 242.814 124.24 242.814 122.95C242.814 121.66 242.628 120.485 242.255 119.424C241.883 118.363 241.352 117.46 240.664 116.715C240.005 115.97 239.202 115.396 238.256 114.995C237.31 114.565 236.235 114.35 235.031 114.35H228.839L229.957 112.974V133.012ZM255.863 138V107.9H276.847V114.135H262.958V131.765H277.277V138H255.863ZM259.303 125.659V119.725H274.912V125.659H259.303ZM293.554 138.43C291.576 138.43 289.784 138.201 288.179 137.742C286.602 137.255 285.198 136.567 283.965 135.678C282.732 134.761 281.629 133.686 280.654 132.453L285.083 127.422C286.516 129.343 287.95 130.633 289.383 131.292C290.845 131.951 292.35 132.281 293.898 132.281C294.672 132.281 295.374 132.181 296.005 131.98C296.636 131.779 297.123 131.493 297.467 131.12C297.811 130.719 297.983 130.231 297.983 129.658C297.983 129.228 297.868 128.841 297.639 128.497C297.438 128.153 297.152 127.852 296.779 127.594C296.406 127.336 295.962 127.107 295.446 126.906C294.93 126.677 294.385 126.49 293.812 126.347C293.239 126.175 292.651 126.032 292.049 125.917C290.386 125.544 288.939 125.086 287.706 124.541C286.473 123.996 285.441 123.337 284.61 122.563C283.807 121.76 283.205 120.857 282.804 119.854C282.403 118.822 282.202 117.675 282.202 116.414C282.202 115.067 282.503 113.834 283.105 112.716C283.736 111.569 284.567 110.595 285.599 109.792C286.66 108.961 287.878 108.33 289.254 107.9C290.63 107.441 292.063 107.212 293.554 107.212C295.532 107.212 297.223 107.427 298.628 107.857C300.061 108.258 301.28 108.846 302.283 109.62C303.315 110.394 304.189 111.326 304.906 112.415L300.391 116.758C299.789 116.013 299.13 115.396 298.413 114.909C297.725 114.422 296.98 114.049 296.177 113.791C295.403 113.533 294.6 113.404 293.769 113.404C292.909 113.404 292.164 113.519 291.533 113.748C290.931 113.949 290.458 114.25 290.114 114.651C289.77 115.024 289.598 115.482 289.598 116.027C289.598 116.514 289.741 116.93 290.028 117.274C290.315 117.618 290.702 117.933 291.189 118.22C291.676 118.478 292.235 118.707 292.866 118.908C293.497 119.08 294.156 119.223 294.844 119.338C296.421 119.653 297.84 120.069 299.101 120.585C300.391 121.101 301.495 121.732 302.412 122.477C303.358 123.222 304.075 124.111 304.562 125.143C305.078 126.146 305.336 127.322 305.336 128.669C305.336 130.762 304.82 132.539 303.788 134.001C302.785 135.434 301.394 136.538 299.617 137.312C297.868 138.057 295.847 138.43 293.554 138.43ZM310.229 138V131.851H315.303V114.049H310.229V107.9H327.73V114.049H322.613V131.851H327.73V138H310.229ZM348.028 138.43C345.62 138.43 343.441 138.043 341.492 137.269C339.542 136.495 337.865 135.406 336.461 134.001C335.056 132.596 333.981 130.948 333.236 129.056C332.49 127.135 332.118 125.057 332.118 122.821C332.118 120.585 332.505 118.535 333.279 116.672C334.081 114.78 335.214 113.132 336.676 111.727C338.138 110.322 339.858 109.233 341.836 108.459C343.842 107.685 346.021 107.298 348.372 107.298C350.034 107.298 351.597 107.513 353.059 107.943C354.549 108.373 355.897 108.961 357.101 109.706C358.305 110.451 359.322 111.311 360.154 112.286L355.725 116.973C355.008 116.285 354.263 115.712 353.489 115.253C352.743 114.794 351.941 114.436 351.081 114.178C350.221 113.891 349.303 113.748 348.329 113.748C347.067 113.748 345.906 113.977 344.846 114.436C343.814 114.895 342.896 115.54 342.094 116.371C341.32 117.174 340.718 118.134 340.288 119.252C339.858 120.341 339.643 121.531 339.643 122.821C339.643 124.111 339.872 125.315 340.331 126.433C340.789 127.551 341.42 128.526 342.223 129.357C343.025 130.16 343.971 130.805 345.061 131.292C346.179 131.751 347.368 131.98 348.63 131.98C349.518 131.98 350.35 131.837 351.124 131.55C351.926 131.263 352.614 130.876 353.188 130.389C353.761 129.902 354.22 129.328 354.564 128.669C354.908 127.981 355.08 127.25 355.08 126.476V125.358L356.026 126.82H347.727V121.101H361.874C361.931 121.416 361.974 121.846 362.003 122.391C362.031 122.936 362.046 123.466 362.046 123.982C362.074 124.498 362.089 124.885 362.089 125.143C362.089 127.092 361.73 128.884 361.014 130.518C360.326 132.123 359.351 133.514 358.09 134.689C356.828 135.864 355.338 136.782 353.618 137.441C351.898 138.1 350.034 138.43 348.028 138.43ZM367.688 138V107.9H374.224L390.005 129.4L388.586 129.185C388.443 128.239 388.328 127.336 388.242 126.476C388.156 125.616 388.07 124.77 387.984 123.939C387.927 123.108 387.87 122.262 387.812 121.402C387.784 120.542 387.755 119.61 387.726 118.607C387.726 117.604 387.726 116.514 387.726 115.339V107.9H394.821V138H388.199L371.73 115.812L373.923 116.113C374.067 117.489 374.181 118.664 374.267 119.639C374.382 120.585 374.468 121.431 374.525 122.176C374.611 122.921 374.669 123.595 374.697 124.197C374.726 124.799 374.74 125.401 374.74 126.003C374.769 126.576 374.783 127.221 374.783 127.938V138H367.688ZM429.864 138.43C427.571 138.43 425.478 138.043 423.586 137.269C421.694 136.495 420.046 135.406 418.641 134.001C417.237 132.596 416.147 130.948 415.373 129.056C414.599 127.164 414.212 125.086 414.212 122.821C414.212 120.556 414.599 118.478 415.373 116.586C416.147 114.694 417.237 113.046 418.641 111.641C420.046 110.236 421.694 109.147 423.586 108.373C425.478 107.599 427.557 107.212 429.821 107.212C432.086 107.212 434.164 107.599 436.056 108.373C437.948 109.147 439.597 110.236 441.001 111.641C442.406 113.046 443.481 114.694 444.226 116.586C445 118.478 445.387 120.556 445.387 122.821C445.387 125.057 445 127.135 444.226 129.056C443.481 130.948 442.406 132.596 441.001 134.001C439.597 135.406 437.948 136.495 436.056 137.269C434.164 138.043 432.1 138.43 429.864 138.43ZM429.821 131.55C430.997 131.55 432.072 131.335 433.046 130.905C434.05 130.475 434.91 129.873 435.626 129.099C436.372 128.296 436.945 127.365 437.346 126.304C437.748 125.243 437.948 124.082 437.948 122.821C437.948 121.56 437.748 120.399 437.346 119.338C436.945 118.277 436.372 117.36 435.626 116.586C434.91 115.783 434.05 115.167 433.046 114.737C432.072 114.307 430.997 114.092 429.821 114.092C428.646 114.092 427.557 114.307 426.553 114.737C425.579 115.167 424.719 115.783 423.973 116.586C423.228 117.36 422.655 118.277 422.253 119.338C421.881 120.399 421.694 121.56 421.694 122.821C421.694 124.082 421.881 125.258 422.253 126.347C422.655 127.408 423.228 128.325 423.973 129.099C424.719 129.873 425.579 130.475 426.553 130.905C427.557 131.335 428.646 131.55 429.821 131.55ZM451.043 138V107.9H457.579L473.36 129.4L471.941 129.185C471.797 128.239 471.683 127.336 471.597 126.476C471.511 125.616 471.425 124.77 471.339 123.939C471.281 123.108 471.224 122.262 471.167 121.402C471.138 120.542 471.109 119.61 471.081 118.607C471.081 117.604 471.081 116.514 471.081 115.339V107.9H478.176V138H471.554L455.085 115.812L457.278 116.113C457.421 117.489 457.536 118.664 457.622 119.639C457.736 120.585 457.822 121.431 457.88 122.176C457.966 122.921 458.023 123.595 458.052 124.197C458.08 124.799 458.095 125.401 458.095 126.003C458.123 126.576 458.138 127.221 458.138 127.938V138H451.043ZM506.038 138V114.35H497.094V107.9H522.507V114.35H513.348V138H506.038ZM527.077 138V131.851H532.151V114.049H527.077V107.9H544.578V114.049H539.461V131.851H544.578V138H527.077ZM551.53 138V107.9H558.066L569.031 125.745L564.344 125.702L575.438 107.9H581.716V138H574.621V128.626C574.621 126.046 574.678 123.724 574.793 121.66C574.936 119.596 575.166 117.546 575.481 115.511L576.298 117.747L567.956 130.69H565.118L556.948 117.833L557.765 115.511C558.08 117.432 558.295 119.41 558.41 121.445C558.553 123.452 558.625 125.845 558.625 128.626V138H551.53ZM589.281 138V107.9H610.265V114.135H596.376V131.765H610.695V138H589.281ZM592.721 125.659V119.725H608.33V125.659H592.721Z" fill="black"/>
</svg>
