<svg width="932" height="149" viewBox="0 0 932 149" fill="none" xmlns="http://www.w3.org/2000/svg">
<path d="M164.994 77V19.5455H187.661C192 19.5455 195.703 20.3216 198.771 21.8739C201.857 23.4076 204.204 25.5864 205.812 28.4105C207.439 31.2159 208.253 34.5169 208.253 38.3136C208.253 42.1289 207.43 45.4112 205.784 48.1605C204.138 50.8911 201.754 52.9858 198.63 54.4446C195.526 55.9034 191.766 56.6328 187.353 56.6328H172.175V46.87H185.389C187.708 46.87 189.634 46.5521 191.168 45.9162C192.702 45.2803 193.842 44.3265 194.591 43.0547C195.357 41.7829 195.741 40.2025 195.741 38.3136C195.741 36.4059 195.357 34.7975 194.591 33.4883C193.842 32.1791 192.692 31.1879 191.14 30.5146C189.606 29.8226 187.671 29.4766 185.333 29.4766H177.141V77H164.994ZM196.021 50.8537L210.301 77H196.891L182.92 50.8537H196.021ZM248.005 36.0692C247.781 33.8062 246.818 32.0482 245.116 30.7951C243.414 29.542 241.104 28.9155 238.186 28.9155C236.204 28.9155 234.53 29.196 233.165 29.7571C231.799 30.2995 230.752 31.0569 230.023 32.0295C229.312 33.002 228.957 34.1055 228.957 35.3398C228.919 36.3685 229.134 37.2662 229.602 38.033C230.088 38.7998 230.752 39.4638 231.594 40.0249C232.435 40.5672 233.408 41.0442 234.511 41.4556C235.615 41.8484 236.793 42.185 238.046 42.4656L243.208 43.6999C245.714 44.261 248.015 45.0091 250.109 45.9442C252.204 46.8794 254.018 48.0296 255.552 49.3949C257.085 50.7602 258.273 52.3686 259.115 54.2202C259.975 56.0717 260.415 58.1945 260.433 60.5884C260.415 64.1045 259.517 67.1531 257.74 69.734C255.982 72.2963 253.438 74.2881 250.109 75.7095C246.799 77.1122 242.806 77.8136 238.13 77.8136C233.492 77.8136 229.452 77.1029 226.011 75.6815C222.588 74.2601 219.914 72.156 217.988 69.3693C216.08 66.5639 215.079 63.0946 214.986 58.9613H226.74C226.871 60.8877 227.423 62.4961 228.396 63.7866C229.387 65.0584 230.705 66.0215 232.351 66.6761C234.016 67.312 235.895 67.63 237.99 67.63C240.047 67.63 241.833 67.3307 243.348 66.7322C244.882 66.1338 246.07 65.3015 246.911 64.2354C247.753 63.1694 248.174 61.9444 248.174 60.5604C248.174 59.2699 247.79 58.1851 247.023 57.3061C246.275 56.4271 245.172 55.679 243.713 55.0618C242.273 54.4446 240.506 53.8835 238.411 53.3786L232.155 51.8075C227.311 50.6293 223.486 48.787 220.681 46.2809C217.875 43.7747 216.482 40.3989 216.501 36.1534C216.482 32.6747 217.408 29.6355 219.278 27.0359C221.167 24.4362 223.757 22.407 227.049 20.9482C230.341 19.4893 234.081 18.7599 238.271 18.7599C242.535 18.7599 246.257 19.4893 249.436 20.9482C252.634 22.407 255.122 24.4362 256.898 27.0359C258.675 29.6355 259.592 32.6467 259.648 36.0692H248.005ZM318.056 36.0692C317.832 33.8062 316.868 32.0482 315.167 30.7951C313.465 29.542 311.155 28.9155 308.237 28.9155C306.255 28.9155 304.581 29.196 303.216 29.7571C301.85 30.2995 300.803 31.0569 300.074 32.0295C299.363 33.002 299.007 34.1055 299.007 35.3398C298.97 36.3685 299.185 37.2662 299.653 38.033C300.139 38.7998 300.803 39.4638 301.645 40.0249C302.486 40.5672 303.459 41.0442 304.562 41.4556C305.666 41.8484 306.844 42.185 308.097 42.4656L313.259 43.6999C315.765 44.261 318.065 45.0091 320.16 45.9442C322.255 46.8794 324.069 48.0296 325.603 49.3949C327.136 50.7602 328.324 52.3686 329.165 54.2202C330.026 56.0717 330.465 58.1945 330.484 60.5884C330.465 64.1045 329.568 67.1531 327.791 69.734C326.033 72.2963 323.489 74.2881 320.16 75.7095C316.85 77.1122 312.857 77.8136 308.181 77.8136C303.543 77.8136 299.503 77.1029 296.062 75.6815C292.639 74.2601 289.965 72.156 288.038 69.3693C286.131 66.5639 285.13 63.0946 285.037 58.9613H296.791C296.922 60.8877 297.474 62.4961 298.446 63.7866C299.438 65.0584 300.756 66.0215 302.402 66.6761C304.067 67.312 305.946 67.63 308.041 67.63C310.098 67.63 311.884 67.3307 313.399 66.7322C314.933 66.1338 316.12 65.3015 316.962 64.2354C317.804 63.1694 318.224 61.9444 318.224 60.5604C318.224 59.2699 317.841 58.1851 317.074 57.3061C316.326 56.4271 315.223 55.679 313.764 55.0618C312.324 54.4446 310.556 53.8835 308.462 53.3786L302.206 51.8075C297.362 50.6293 293.537 48.787 290.732 46.2809C287.926 43.7747 286.533 40.3989 286.551 36.1534C286.533 32.6747 287.459 29.6355 289.329 27.0359C291.218 24.4362 293.808 22.407 297.1 20.9482C300.391 19.4893 304.132 18.7599 308.321 18.7599C312.586 18.7599 316.307 19.4893 319.487 20.9482C322.685 22.407 325.172 24.4362 326.949 27.0359C328.726 29.6355 329.642 32.6467 329.699 36.0692H318.056ZM357.9 77.8416C353.542 77.8416 349.773 76.9158 346.594 75.0643C343.433 73.194 340.993 70.5943 339.272 67.2653C337.551 63.9175 336.691 60.0367 336.691 55.6229C336.691 51.1716 337.551 47.2815 339.272 43.9524C340.993 40.6046 343.433 38.005 346.594 36.1534C349.773 34.2831 353.542 33.348 357.9 33.348C362.257 33.348 366.017 34.2831 369.177 36.1534C372.357 38.005 374.807 40.6046 376.528 43.9524C378.248 47.2815 379.109 51.1716 379.109 55.6229C379.109 60.0367 378.248 63.9175 376.528 67.2653C374.807 70.5943 372.357 73.194 369.177 75.0643C366.017 76.9158 362.257 77.8416 357.9 77.8416ZM357.956 68.5838C359.938 68.5838 361.594 68.0227 362.921 66.9006C364.249 65.7597 365.25 64.2074 365.923 62.2436C366.615 60.2798 366.961 58.0449 366.961 55.5387C366.961 53.0326 366.615 50.7976 365.923 48.8338C365.25 46.87 364.249 45.3177 362.921 44.1768C361.594 43.036 359.938 42.4656 357.956 42.4656C355.955 42.4656 354.271 43.036 352.906 44.1768C351.56 45.3177 350.54 46.87 349.848 48.8338C349.175 50.7976 348.838 53.0326 348.838 55.5387C348.838 58.0449 349.175 60.2798 349.848 62.2436C350.54 64.2074 351.56 65.7597 352.906 66.9006C354.271 68.0227 355.955 68.5838 357.956 68.5838ZM398.831 19.5455V77H386.88V19.5455H398.831ZM420.692 77.8136C417.942 77.8136 415.492 77.3366 413.341 76.3828C411.191 75.4103 409.489 73.9795 408.236 72.0906C407.001 70.1829 406.384 67.8076 406.384 64.9648C406.384 62.5709 406.824 60.5604 407.703 58.9332C408.582 57.3061 409.779 55.9969 411.294 55.0057C412.808 54.0144 414.529 53.2663 416.455 52.7614C418.401 52.2564 420.439 51.901 422.571 51.6953C425.077 51.4335 427.097 51.1903 428.631 50.9659C430.164 50.7228 431.277 50.3674 431.969 49.8999C432.661 49.4323 433.007 48.7403 433.007 47.8239V47.6555C433.007 45.8788 432.446 44.5041 431.324 43.5316C430.221 42.5591 428.65 42.0728 426.611 42.0728C424.46 42.0728 422.749 42.5497 421.477 43.5036C420.205 44.4387 419.364 45.617 418.952 47.0384L407.899 46.1406C408.46 43.5223 409.564 41.2592 411.209 39.3516C412.855 37.4252 414.978 35.9477 417.578 34.919C420.196 33.8717 423.226 33.348 426.667 33.348C429.061 33.348 431.352 33.6286 433.54 34.1896C435.747 34.7507 437.702 35.6204 439.404 36.7986C441.124 37.9769 442.48 39.4918 443.471 41.3434C444.463 43.1763 444.958 45.3738 444.958 47.9361V77H433.624V71.0245H433.288C432.596 72.3711 431.67 73.5587 430.51 74.5874C429.351 75.5973 427.958 76.3922 426.33 76.9719C424.703 77.533 422.824 77.8136 420.692 77.8136ZM424.114 69.5657C425.872 69.5657 427.425 69.2197 428.771 68.5277C430.118 67.817 431.174 66.8632 431.941 65.6662C432.708 64.4692 433.091 63.1133 433.091 61.5984V57.0256C432.717 57.2687 432.203 57.4931 431.548 57.6989C430.913 57.8859 430.193 58.0636 429.388 58.2319C428.584 58.3815 427.78 58.5218 426.976 58.6527C426.171 58.7649 425.442 58.8678 424.787 58.9613C423.385 59.167 422.16 59.4943 421.112 59.9432C420.065 60.392 419.251 60.9999 418.672 61.7667C418.092 62.5148 417.802 63.4499 417.802 64.5721C417.802 66.1992 418.391 67.4429 419.569 68.3033C420.766 69.1449 422.281 69.5657 424.114 69.5657ZM454.23 77V33.9091H465.816V41.4276H466.265C467.051 38.7531 468.369 36.7332 470.221 35.3679C472.072 33.9839 474.205 33.2919 476.617 33.2919C477.216 33.2919 477.861 33.3293 478.553 33.4041C479.245 33.4789 479.853 33.5818 480.376 33.7127V44.3171C479.815 44.1488 479.039 43.9992 478.048 43.8683C477.057 43.7373 476.15 43.6719 475.327 43.6719C473.569 43.6719 471.998 44.0553 470.614 44.8221C469.248 45.5702 468.164 46.6175 467.359 47.9641C466.574 49.3107 466.181 50.863 466.181 52.6211V77H454.23Z" fill="#ffffffff"/>
<path d="M555.757 39.6602H543.47C543.245 38.0704 542.787 36.6584 542.095 35.424C541.403 34.1709 540.515 33.1049 539.43 32.2259C538.345 31.3468 537.092 30.6735 535.671 30.206C534.268 29.7384 532.744 29.5046 531.098 29.5046C528.124 29.5046 525.534 30.2434 523.327 31.7209C521.12 33.1797 519.409 35.3118 518.193 38.1172C516.978 40.9039 516.37 44.2891 516.37 48.2727C516.37 52.3686 516.978 55.8099 518.193 58.5966C519.428 61.3833 521.148 63.4873 523.355 64.9087C525.562 66.3301 528.115 67.0408 531.014 67.0408C532.641 67.0408 534.147 66.8258 535.531 66.3956C536.933 65.9654 538.177 65.3389 539.262 64.516C540.346 63.6744 541.244 62.6551 541.955 61.4581C542.684 60.2611 543.189 58.8958 543.47 57.3622L555.757 57.4183C555.44 60.0554 554.645 62.599 553.373 65.049C552.12 67.4804 550.427 69.6592 548.295 71.5856C546.182 73.4933 543.657 75.0082 540.721 76.1303C537.803 77.2338 534.502 77.7855 530.817 77.7855C525.693 77.7855 521.111 76.6259 517.071 74.3068C513.05 71.9877 509.871 68.6306 507.533 64.2354C505.214 59.8403 504.054 54.5194 504.054 48.2727C504.054 42.0073 505.232 36.6771 507.589 32.282C509.945 27.8868 513.143 24.5391 517.183 22.2386C521.223 19.9195 525.768 18.7599 530.817 18.7599C534.147 18.7599 537.232 19.2275 540.075 20.1626C542.937 21.0978 545.471 22.4631 547.678 24.2585C549.885 26.0353 551.68 28.2141 553.064 30.7951C554.467 33.3761 555.365 36.3311 555.757 39.6602ZM573.291 77H560.274L580.108 19.5455H595.762L615.569 77H602.551L588.16 32.6747H587.711L573.291 77ZM572.478 54.4165H603.225V63.8988H572.478V54.4165ZM642.851 77H622.484V19.5455H643.019C648.798 19.5455 653.773 20.6957 657.944 22.9961C662.115 25.2778 665.322 28.5601 667.567 32.843C669.83 37.1259 670.961 42.2505 670.961 48.2166C670.961 54.2015 669.83 59.3447 667.567 63.6463C665.322 67.9479 662.096 71.2489 657.888 73.5494C653.699 75.8498 648.686 77 642.851 77ZM634.631 66.592H642.346C645.937 66.592 648.957 65.9561 651.407 64.6843C653.876 63.3938 655.728 61.402 656.962 58.7088C658.215 55.9969 658.842 52.4995 658.842 48.2166C658.842 43.9711 658.215 40.5018 656.962 37.8086C655.728 35.1154 653.886 33.1329 651.436 31.8611C648.986 30.5894 645.965 29.9535 642.374 29.9535H634.631V66.592ZM736.341 38.1172C735.948 36.7519 735.396 35.5456 734.686 34.4982C733.975 33.4322 733.105 32.5344 732.077 31.805C731.067 31.0569 729.907 30.4865 728.598 30.0938C727.308 29.701 725.877 29.5046 724.306 29.5046C721.369 29.5046 718.788 30.234 716.563 31.6928C714.356 33.1516 712.635 35.2744 711.401 38.0611C710.167 40.8291 709.549 44.2143 709.549 48.2166C709.549 52.219 710.157 55.6229 711.373 58.4283C712.589 61.2337 714.309 63.3751 716.535 64.8526C718.76 66.3114 721.388 67.0408 724.418 67.0408C727.167 67.0408 729.514 66.5546 731.46 65.582C733.423 64.5908 734.92 63.1974 735.948 61.402C736.996 59.6065 737.519 57.4838 737.519 55.0337L739.988 55.3984H725.175V46.2528H749.218V53.4908C749.218 58.5405 748.152 62.8795 746.02 66.5078C743.887 70.1174 740.951 72.9041 737.211 74.8679C733.47 76.813 729.187 77.7855 724.362 77.7855C718.975 77.7855 714.244 76.5979 710.167 74.2227C706.089 71.8287 702.91 68.4342 700.628 64.0391C698.365 59.6252 697.234 54.3885 697.234 48.3288C697.234 43.6719 697.907 39.5199 699.254 35.8729C700.619 32.2071 702.527 29.1025 704.977 26.5589C707.427 24.0154 710.279 22.0797 713.533 20.7518C716.787 19.4239 720.313 18.7599 724.109 18.7599C727.364 18.7599 730.393 19.2369 733.199 20.1907C736.004 21.1258 738.492 22.4537 740.661 24.1744C742.849 25.895 744.636 27.9429 746.02 30.3182C747.404 32.6747 748.292 35.2744 748.685 38.1172H736.341ZM758.118 77V33.9091H769.704V41.4276H770.153C770.938 38.7531 772.257 36.7332 774.109 35.3679C775.96 33.9839 778.092 33.2919 780.505 33.2919C781.103 33.2919 781.749 33.3293 782.441 33.4041C783.133 33.4789 783.74 33.5818 784.264 33.7127V44.3171C783.703 44.1488 782.927 43.9992 781.936 43.8683C780.944 43.7373 780.037 43.6719 779.214 43.6719C777.456 43.6719 775.885 44.0553 774.501 44.8221C773.136 45.5702 772.051 46.6175 771.247 47.9641C770.462 49.3107 770.069 50.863 770.069 52.6211V77H758.118ZM807.907 77.8416C803.549 77.8416 799.78 76.9158 796.601 75.0643C793.44 73.194 790.999 70.5943 789.279 67.2653C787.558 63.9175 786.698 60.0367 786.698 55.6229C786.698 51.1716 787.558 47.2815 789.279 43.9524C790.999 40.6046 793.44 38.005 796.601 36.1534C799.78 34.2831 803.549 33.348 807.907 33.348C812.264 33.348 816.024 34.2831 819.184 36.1534C822.364 38.005 824.814 40.6046 826.534 43.9524C828.255 47.2815 829.115 51.1716 829.115 55.6229C829.115 60.0367 828.255 63.9175 826.534 67.2653C824.814 70.5943 822.364 73.194 819.184 75.0643C816.024 76.9158 812.264 77.8416 807.907 77.8416ZM807.963 68.5838C809.945 68.5838 811.6 68.0227 812.928 66.9006C814.256 65.7597 815.257 64.2074 815.93 62.2436C816.622 60.2798 816.968 58.0449 816.968 55.5387C816.968 53.0326 816.622 50.7976 815.93 48.8338C815.257 46.87 814.256 45.3177 812.928 44.1768C811.6 43.036 809.945 42.4656 807.963 42.4656C805.962 42.4656 804.278 43.036 802.913 44.1768C801.566 45.3177 800.547 46.87 799.855 48.8338C799.182 50.7976 798.845 53.0326 798.845 55.5387C798.845 58.0449 799.182 60.2798 799.855 62.2436C800.547 64.2074 801.566 65.7597 802.913 66.9006C804.278 68.0227 805.962 68.5838 807.963 68.5838ZM864.52 58.6527V33.9091H876.471V77H864.996V69.1729H864.548C863.575 71.6978 861.957 73.727 859.694 75.2607C857.45 76.7943 854.71 77.5611 851.474 77.5611C848.594 77.5611 846.06 76.9065 843.872 75.5973C841.684 74.2881 839.972 72.4272 838.738 70.0146C837.522 67.6019 836.905 64.7124 836.886 61.3459V33.9091H848.837V59.2138C848.856 61.7573 849.539 63.7679 850.885 65.2454C852.232 66.7229 854.037 67.4616 856.3 67.4616C857.74 67.4616 859.086 67.1344 860.339 66.4798C861.593 65.8065 862.603 64.8152 863.369 63.506C864.155 62.1969 864.538 60.5791 864.52 58.6527ZM886.03 93.1591V33.9091H897.813V41.147H898.346C898.869 39.9875 899.627 38.8092 900.618 37.6122C901.628 36.3965 902.937 35.3866 904.546 34.5824C906.173 33.7595 908.193 33.348 910.605 33.348C913.747 33.348 916.646 34.1709 919.302 35.8168C921.958 37.4439 924.08 39.9033 925.67 43.195C927.26 46.4679 928.055 50.5732 928.055 55.5107C928.055 60.3172 927.279 64.3757 925.726 67.6861C924.193 70.9777 922.098 73.4746 919.442 75.1765C916.805 76.8597 913.85 77.7013 910.577 77.7013C908.258 77.7013 906.285 77.3179 904.658 76.5511C903.049 75.7843 901.731 74.8211 900.702 73.6616C899.674 72.4833 898.888 71.2957 898.346 70.0987H897.981V93.1591H886.03ZM897.728 55.4545C897.728 58.0168 898.084 60.2518 898.794 62.1594C899.505 64.0671 900.534 65.554 901.88 66.62C903.227 67.6674 904.863 68.1911 906.79 68.1911C908.735 68.1911 910.381 67.658 911.727 66.592C913.074 65.5072 914.093 64.011 914.785 62.1033C915.496 60.177 915.851 57.9607 915.851 55.4545C915.851 52.9671 915.505 50.7789 914.813 48.8899C914.121 47.0009 913.102 45.5234 911.755 44.4574C910.409 43.3913 908.754 42.8583 906.79 42.8583C904.845 42.8583 903.199 43.3726 901.852 44.4013C900.524 45.4299 899.505 46.8887 898.794 48.7777C898.084 50.6667 897.728 52.8923 897.728 55.4545Z" fill="#ffffffff"/>
<path d="M186.445 142.73L174.921 127.121L180.296 123.38L191.691 138.86L186.445 142.73ZM177.458 138.43C175.193 138.43 173.115 138.043 171.223 137.269C169.331 136.495 167.683 135.406 166.278 134.001C164.873 132.596 163.784 130.948 163.01 129.056C162.236 127.164 161.849 125.086 161.849 122.821C161.849 120.556 162.236 118.478 163.01 116.586C163.784 114.694 164.873 113.046 166.278 111.641C167.683 110.236 169.331 109.147 171.223 108.373C173.115 107.599 175.193 107.212 177.458 107.212C179.723 107.212 181.801 107.599 183.693 108.373C185.585 109.147 187.233 110.236 188.638 111.641C190.043 113.046 191.118 114.694 191.863 116.586C192.637 118.478 193.024 120.556 193.024 122.821C193.024 125.057 192.637 127.135 191.863 129.056C191.118 130.948 190.043 132.596 188.638 134.001C187.233 135.406 185.585 136.495 183.693 137.269C181.801 138.043 179.723 138.43 177.458 138.43ZM177.458 131.55C178.633 131.55 179.708 131.335 180.683 130.905C181.686 130.475 182.546 129.873 183.263 129.099C184.008 128.296 184.582 127.365 184.983 126.304C185.384 125.243 185.585 124.082 185.585 122.821C185.585 121.56 185.384 120.399 184.983 119.338C184.582 118.277 184.008 117.36 183.263 116.586C182.546 115.783 181.686 115.167 180.683 114.737C179.708 114.307 178.633 114.092 177.458 114.092C176.283 114.092 175.193 114.307 174.19 114.737C173.215 115.167 172.355 115.783 171.61 116.586C170.865 117.36 170.291 118.277 169.89 119.338C169.517 120.399 169.331 121.56 169.331 122.821C169.331 124.082 169.517 125.258 169.89 126.347C170.291 127.408 170.865 128.325 171.61 129.099C172.355 129.873 173.215 130.475 174.19 130.905C175.193 131.335 176.283 131.55 177.458 131.55ZM211.365 138.258C208.871 138.258 206.649 137.756 204.7 136.753C202.75 135.721 201.217 134.316 200.099 132.539C199.009 130.762 198.465 128.726 198.465 126.433V107.9H205.861V126.046C205.861 127.135 206.104 128.124 206.592 129.013C207.079 129.873 207.738 130.561 208.57 131.077C209.401 131.564 210.333 131.808 211.365 131.808C212.454 131.808 213.414 131.564 214.246 131.077C215.106 130.561 215.794 129.873 216.31 129.013C216.826 128.124 217.084 127.135 217.084 126.046V107.9H224.222V126.433C224.222 128.726 223.663 130.762 222.545 132.539C221.455 134.316 219.936 135.721 217.987 136.753C216.037 137.756 213.83 138.258 211.365 138.258ZM226.893 138L238.804 107.9H244.996L256.821 138H249.425L243.749 122.735C243.519 122.133 243.29 121.488 243.061 120.8C242.831 120.112 242.602 119.41 242.373 118.693C242.143 117.948 241.914 117.231 241.685 116.543C241.484 115.826 241.312 115.167 241.169 114.565L242.459 114.522C242.287 115.239 242.086 115.941 241.857 116.629C241.656 117.317 241.441 118.005 241.212 118.693C241.011 119.352 240.782 120.026 240.524 120.714C240.266 121.373 240.022 122.061 239.793 122.778L234.117 138H226.893ZM232.569 132.238L234.848 126.734H248.694L250.93 132.238H232.569ZM260.576 138V107.9H267.886V131.55H281.302V138H260.576ZM286.177 138V131.851H291.251V114.049H286.177V107.9H303.678V114.049H298.561V131.851H303.678V138H286.177ZM317.167 138V114.35H308.223V107.9H333.636V114.35H324.477V138H317.167ZM347.01 138V122.993L347.311 125.1L335.142 107.9H343.441L352.729 121.23L348.945 121.101L357.33 107.9H365.371L353.718 125.573L354.363 122.649V138H347.01ZM382.647 138V107.9H395.246C397.454 107.9 399.475 108.273 401.309 109.018C403.144 109.735 404.721 110.767 406.039 112.114C407.387 113.461 408.419 115.052 409.135 116.887C409.852 118.722 410.21 120.743 410.21 122.95C410.21 125.157 409.852 127.193 409.135 129.056C408.419 130.891 407.387 132.482 406.039 133.829C404.721 135.148 403.144 136.18 401.309 136.925C399.475 137.642 397.454 138 395.246 138H382.647ZM389.957 133.012L388.968 131.55H395.031C396.235 131.55 397.31 131.349 398.256 130.948C399.202 130.518 400.005 129.93 400.664 129.185C401.352 128.44 401.883 127.537 402.255 126.476C402.628 125.415 402.814 124.24 402.814 122.95C402.814 121.66 402.628 120.485 402.255 119.424C401.883 118.363 401.352 117.46 400.664 116.715C400.005 115.97 399.202 115.396 398.256 114.995C397.31 114.565 396.235 114.35 395.031 114.35H388.839L389.957 112.974V133.012ZM415.863 138V107.9H436.847V114.135H422.958V131.765H437.277V138H415.863ZM419.303 125.659V119.725H434.912V125.659H419.303ZM453.554 138.43C451.576 138.43 449.784 138.201 448.179 137.742C446.602 137.255 445.198 136.567 443.965 135.678C442.732 134.761 441.629 133.686 440.654 132.453L445.083 127.422C446.516 129.343 447.95 130.633 449.383 131.292C450.845 131.951 452.35 132.281 453.898 132.281C454.672 132.281 455.374 132.181 456.005 131.98C456.636 131.779 457.123 131.493 457.467 131.12C457.811 130.719 457.983 130.231 457.983 129.658C457.983 129.228 457.868 128.841 457.639 128.497C457.438 128.153 457.152 127.852 456.779 127.594C456.406 127.336 455.962 127.107 455.446 126.906C454.93 126.677 454.385 126.49 453.812 126.347C453.239 126.175 452.651 126.032 452.049 125.917C450.386 125.544 448.939 125.086 447.706 124.541C446.473 123.996 445.441 123.337 444.61 122.563C443.807 121.76 443.205 120.857 442.804 119.854C442.403 118.822 442.202 117.675 442.202 116.414C442.202 115.067 442.503 113.834 443.105 112.716C443.736 111.569 444.567 110.595 445.599 109.792C446.66 108.961 447.878 108.33 449.254 107.9C450.63 107.441 452.063 107.212 453.554 107.212C455.532 107.212 457.223 107.427 458.628 107.857C460.061 108.258 461.28 108.846 462.283 109.62C463.315 110.394 464.189 111.326 464.906 112.415L460.391 116.758C459.789 116.013 459.13 115.396 458.413 114.909C457.725 114.422 456.98 114.049 456.177 113.791C455.403 113.533 454.6 113.404 453.769 113.404C452.909 113.404 452.164 113.519 451.533 113.748C450.931 113.949 450.458 114.25 450.114 114.651C449.77 115.024 449.598 115.482 449.598 116.027C449.598 116.514 449.741 116.93 450.028 117.274C450.315 117.618 450.702 117.933 451.189 118.22C451.676 118.478 452.235 118.707 452.866 118.908C453.497 119.08 454.156 119.223 454.844 119.338C456.421 119.653 457.84 120.069 459.101 120.585C460.391 121.101 461.495 121.732 462.412 122.477C463.358 123.222 464.075 124.111 464.562 125.143C465.078 126.146 465.336 127.322 465.336 128.669C465.336 130.762 464.82 132.539 463.788 134.001C462.785 135.434 461.394 136.538 459.617 137.312C457.868 138.057 455.847 138.43 453.554 138.43ZM470.229 138V131.851H475.303V114.049H470.229V107.9H487.73V114.049H482.613V131.851H487.73V138H470.229ZM508.028 138.43C505.62 138.43 503.441 138.043 501.492 137.269C499.542 136.495 497.865 135.406 496.461 134.001C495.056 132.596 493.981 130.948 493.236 129.056C492.49 127.135 492.118 125.057 492.118 122.821C492.118 120.585 492.505 118.535 493.279 116.672C494.081 114.78 495.214 113.132 496.676 111.727C498.138 110.322 499.858 109.233 501.836 108.459C503.842 107.685 506.021 107.298 508.372 107.298C510.034 107.298 511.597 107.513 513.059 107.943C514.549 108.373 515.897 108.961 517.101 109.706C518.305 110.451 519.322 111.311 520.154 112.286L515.725 116.973C515.008 116.285 514.263 115.712 513.489 115.253C512.743 114.794 511.941 114.436 511.081 114.178C510.221 113.891 509.303 113.748 508.329 113.748C507.067 113.748 505.906 113.977 504.846 114.436C503.814 114.895 502.896 115.54 502.094 116.371C501.32 117.174 500.718 118.134 500.288 119.252C499.858 120.341 499.643 121.531 499.643 122.821C499.643 124.111 499.872 125.315 500.331 126.433C500.789 127.551 501.42 128.526 502.223 129.357C503.025 130.16 503.971 130.805 505.061 131.292C506.179 131.751 507.368 131.98 508.63 131.98C509.518 131.98 510.35 131.837 511.124 131.55C511.926 131.263 512.614 130.876 513.188 130.389C513.761 129.902 514.22 129.328 514.564 128.669C514.908 127.981 515.08 127.25 515.08 126.476V125.358L516.026 126.82H507.727V121.101H521.874C521.931 121.416 521.974 121.846 522.003 122.391C522.031 122.936 522.046 123.466 522.046 123.982C522.074 124.498 522.089 124.885 522.089 125.143C522.089 127.092 521.73 128.884 521.014 130.518C520.326 132.123 519.351 133.514 518.09 134.689C516.828 135.864 515.338 136.782 513.618 137.441C511.898 138.1 510.034 138.43 508.028 138.43ZM527.688 138V107.9H534.224L550.005 129.4L548.586 129.185C548.443 128.239 548.328 127.336 548.242 126.476C548.156 125.616 548.07 124.77 547.984 123.939C547.927 123.108 547.87 122.262 547.812 121.402C547.784 120.542 547.755 119.61 547.726 118.607C547.726 117.604 547.726 116.514 547.726 115.339V107.9H554.821V138H548.199L531.73 115.812L533.923 116.113C534.067 117.489 534.181 118.664 534.267 119.639C534.382 120.585 534.468 121.431 534.525 122.176C534.611 122.921 534.669 123.595 534.697 124.197C534.726 124.799 534.74 125.401 534.74 126.003C534.769 126.576 534.783 127.221 534.783 127.938V138H527.688ZM589.864 138.43C587.571 138.43 585.478 138.043 583.586 137.269C581.694 136.495 580.046 135.406 578.641 134.001C577.237 132.596 576.147 130.948 575.373 129.056C574.599 127.164 574.212 125.086 574.212 122.821C574.212 120.556 574.599 118.478 575.373 116.586C576.147 114.694 577.237 113.046 578.641 111.641C580.046 110.236 581.694 109.147 583.586 108.373C585.478 107.599 587.557 107.212 589.821 107.212C592.086 107.212 594.164 107.599 596.056 108.373C597.948 109.147 599.597 110.236 601.001 111.641C602.406 113.046 603.481 114.694 604.226 116.586C605 118.478 605.387 120.556 605.387 122.821C605.387 125.057 605 127.135 604.226 129.056C603.481 130.948 602.406 132.596 601.001 134.001C599.597 135.406 597.948 136.495 596.056 137.269C594.164 138.043 592.1 138.43 589.864 138.43ZM589.821 131.55C590.997 131.55 592.072 131.335 593.046 130.905C594.05 130.475 594.91 129.873 595.626 129.099C596.372 128.296 596.945 127.365 597.346 126.304C597.748 125.243 597.948 124.082 597.948 122.821C597.948 121.56 597.748 120.399 597.346 119.338C596.945 118.277 596.372 117.36 595.626 116.586C594.91 115.783 594.05 115.167 593.046 114.737C592.072 114.307 590.997 114.092 589.821 114.092C588.646 114.092 587.557 114.307 586.553 114.737C585.579 115.167 584.719 115.783 583.973 116.586C583.228 117.36 582.655 118.277 582.253 119.338C581.881 120.399 581.694 121.56 581.694 122.821C581.694 124.082 581.881 125.258 582.253 126.347C582.655 127.408 583.228 128.325 583.973 129.099C584.719 129.873 585.579 130.475 586.553 130.905C587.557 131.335 588.646 131.55 589.821 131.55ZM611.043 138V107.9H617.579L633.36 129.4L631.941 129.185C631.797 128.239 631.683 127.336 631.597 126.476C631.511 125.616 631.425 124.77 631.339 123.939C631.281 123.108 631.224 122.262 631.167 121.402C631.138 120.542 631.109 119.61 631.081 118.607C631.081 117.604 631.081 116.514 631.081 115.339V107.9H638.176V138H631.554L615.085 115.812L617.278 116.113C617.421 117.489 617.536 118.664 617.622 119.639C617.736 120.585 617.822 121.431 617.88 122.176C617.966 122.921 618.023 123.595 618.052 124.197C618.08 124.799 618.095 125.401 618.095 126.003C618.123 126.576 618.138 127.221 618.138 127.938V138H611.043ZM666.038 138V114.35H657.094V107.9H682.507V114.35H673.348V138H666.038ZM687.077 138V131.851H692.151V114.049H687.077V107.9H704.578V114.049H699.461V131.851H704.578V138H687.077ZM711.53 138V107.9H718.066L729.031 125.745L724.344 125.702L735.438 107.9H741.716V138H734.621V128.626C734.621 126.046 734.678 123.724 734.793 121.66C734.936 119.596 735.166 117.546 735.481 115.511L736.298 117.747L727.956 130.69H725.118L716.948 117.833L717.765 115.511C718.08 117.432 718.295 119.41 718.41 121.445C718.553 123.452 718.625 125.845 718.625 128.626V138H711.53ZM749.281 138V107.9H770.265V114.135H756.376V131.765H770.695V138H749.281ZM752.721 125.659V119.725H768.33V125.659H752.721Z" fill="white"/>
<path d="M74.0916 31.1289C75.3059 31.6921 75.8706 32.3956 76.7019 33.374C77.4842 34.1909 78.3042 34.8048 79.2413 35.4659C81.3711 37.0207 83.2545 38.7382 85.1431 40.5375C87.1293 42.4203 89.1211 44.2523 91.2772 45.9679C92.2091 46.7222 93.0726 47.5297 93.9351 48.3515C95.0731 49.4199 96.2151 50.4525 97.447 51.4269C98.7641 52.4709 99.9885 53.587 101.205 54.7302C103.143 56.55 105.152 58.256 107.286 59.8759C107.532 60.0648 107.778 60.2537 108.032 60.4483C108.25 60.6113 108.468 60.7744 108.692 60.9423C109.858 62.0326 110.144 63.0975 110.151 64.6028C110.156 65.1033 110.156 65.1033 110.161 65.6139C110.16 66.159 110.16 66.159 110.16 66.7151C110.163 67.0999 110.165 67.4847 110.168 67.8812C110.175 69.1544 110.177 70.4275 110.178 71.7008C110.18 72.5851 110.183 73.4694 110.186 74.3537C110.19 76.2078 110.192 78.0619 110.191 79.9159C110.191 82.2931 110.202 84.67 110.216 87.0471C110.224 88.8735 110.226 90.6999 110.225 92.5264C110.226 93.4028 110.23 94.2793 110.236 95.1558C110.244 96.3809 110.241 97.6057 110.237 98.8309C110.241 99.1936 110.245 99.5562 110.25 99.9299C110.234 101.512 110.212 102.411 109.305 103.783C107.581 105.239 105.99 105.308 103.716 105.323C103.448 105.325 103.181 105.327 102.906 105.329C102.044 105.333 101.182 105.331 100.32 105.327C99.8832 105.327 99.8832 105.327 99.4372 105.327C88.1401 105.305 88.1401 105.305 86.4692 103.755C86.4252 103.217 86.4077 102.677 86.401 102.138C86.3957 101.793 86.3904 101.449 86.385 101.094C86.3788 100.529 86.3788 100.529 86.3725 99.9537C86.3596 99.1592 86.3465 98.3647 86.3334 97.5702C86.3149 96.3162 86.2974 95.0622 86.2819 93.8081C86.2661 92.5989 86.2459 91.3897 86.2252 90.1806C86.2219 89.8117 86.2186 89.4429 86.2152 89.0629C86.3116 84.7555 86.3116 84.7555 84.4309 81.1037C80.1871 79.9063 75.067 80.3861 70.6779 80.359C70.1808 80.3542 69.6836 80.3495 69.1714 80.3445C68.6985 80.3441 68.2257 80.3438 67.7385 80.3434C67.1047 80.3411 67.1047 80.3411 66.4581 80.3388C65.1165 80.4372 64.1154 80.629 62.8928 81.1564C61.8332 82.4808 61.5656 83.4353 61.5565 85.0698C61.5513 85.4809 61.546 85.8921 61.5406 86.3156C61.5406 86.7561 61.5405 87.1966 61.5405 87.6504C61.5353 88.1055 61.5301 88.5607 61.5248 89.0296C61.5114 90.2365 61.5026 91.4432 61.4967 92.6502C61.4881 94.3515 61.4752 96.0528 61.4569 97.754C61.4473 98.6591 61.4414 99.5641 61.4397 100.469C61.4357 100.879 61.4317 101.289 61.4276 101.711C61.4259 102.072 61.4242 102.432 61.4225 102.803C61.3186 103.778 61.0713 104.379 60.5351 105.213C58.1592 105.231 55.7833 105.245 53.4073 105.253C52.601 105.257 51.7946 105.262 50.9883 105.268C39.2754 105.358 39.2754 105.358 36.9587 103.391C36.762 102.643 36.762 102.643 36.7617 101.768C36.7578 101.436 36.754 101.104 36.75 100.762C36.7538 100.398 36.7576 100.035 36.7615 99.66C36.7594 99.2764 36.7573 98.8929 36.7551 98.4977C36.7502 97.2259 36.7567 95.9544 36.7637 94.6827C36.7637 93.7996 36.7631 92.9165 36.762 92.0334C36.7614 90.1802 36.7664 88.327 36.7753 86.4738C36.7865 84.1005 36.7854 81.7273 36.7804 79.3539C36.7777 77.529 36.7807 75.7041 36.7856 73.8792C36.7874 73.0044 36.7875 72.1295 36.786 71.2547C36.7848 70.0296 36.7913 68.8049 36.7999 67.5799C36.7981 67.2192 36.7963 66.8586 36.7945 66.4871C36.8226 64.0634 37.0969 62.1751 38.9157 60.3116C39.2019 60.0936 39.4881 59.8756 39.7829 59.6509C40.0975 59.4052 40.412 59.1595 40.7361 58.9063C41.0456 58.6709 41.3551 58.4355 41.6739 58.1929C43.8957 56.4491 45.9655 54.5992 47.9978 52.6685C49.1007 51.6441 50.2747 50.7045 51.4541 49.7571C52.8617 48.6086 54.2151 47.4074 55.5742 46.21C58.2283 43.8828 60.8841 41.5598 63.6618 39.3586C65.5456 37.8639 67.2973 36.2731 69.0277 34.6282C72.587 31.2685 72.587 31.2685 74.0916 31.1289Z" fill="#ffffffff"/>
<path d="M7.09983 68.2305C8.74363 68.5874 9.40431 69.1967 10.4586 70.3897C11.7018 72.3648 12.1537 74.5987 12.6575 76.8166C13.1746 76.578 13.6917 76.3394 14.2244 76.0936C14.2244 75.6164 14.2244 75.1391 14.2244 74.6475C14.7415 74.6475 15.2586 74.6475 15.7913 74.6475C18.1625 77.634 18.6155 81.2153 19.3169 84.7701C20.1616 84.7701 20.8542 84.6087 21.6673 84.4086C23.4479 86.41 23.8084 88.5465 24.3115 91.0515C24.3978 91.4486 24.4842 91.8456 24.5731 92.2547C25.0168 94.3759 25.2953 96.3483 25.1928 98.5079C24.0294 98.329 24.0294 98.329 22.8425 98.1464C23.6593 99.4913 24.5738 100.586 25.707 101.716C27.4683 103.481 27.4683 103.481 28.076 104.197C29.4903 105.841 30.8291 106.733 32.905 107.569C33.1926 107.689 33.4801 107.81 33.7764 107.934C36.2081 108.923 38.7005 109.654 41.2412 110.362C51.3413 113.202 59.6278 118.805 64.7575 127.43C64.8931 127.654 65.0287 127.878 65.1684 128.108C68.2069 133.194 71.362 139.601 71.0252 145.506C70.39 146.092 69.6873 145.919 68.8097 145.926C68.4214 145.929 68.0331 145.932 67.633 145.936C67.2103 145.938 66.7875 145.939 66.352 145.941C65.9206 145.943 65.4892 145.945 65.0447 145.947C64.1299 145.95 63.2151 145.953 62.3002 145.954C60.8979 145.958 59.4958 145.969 58.0936 145.98C57.2066 145.983 56.3195 145.984 55.4325 145.986C55.0114 145.99 54.5903 145.995 54.1564 145.999C53.7656 145.998 53.3748 145.997 52.9722 145.996C52.628 145.997 52.2839 145.999 51.9293 146C50.8613 145.839 50.5298 145.559 49.8718 144.783C49.6437 144.33 49.4321 143.87 49.2353 143.404C47.5507 140.22 42.9749 138.798 39.7113 137.304C39.3582 137.14 39.3582 137.14 38.998 136.974C35.0537 135.152 31.0524 133.523 26.932 132.063C22.9192 130.585 20.8941 128.458 18.7293 125.08C18.5446 124.796 18.36 124.511 18.1697 124.219C15.4361 119.942 13.4312 115.417 11.4823 110.8C11.2859 110.359 11.0894 109.919 10.8871 109.465C10.7038 109.048 10.5205 108.631 10.3316 108.201C10.1665 107.831 10.0014 107.46 9.83123 107.079C9.51445 106.071 9.51363 105.619 9.91539 104.654C11.5398 105.254 12.6839 106.338 13.9306 107.433C14.3853 107.827 14.8403 108.22 15.2956 108.614C15.515 108.803 15.7344 108.993 15.9604 109.189C16.9725 110.056 18.0184 110.885 19.0644 111.716C19.6753 112.218 20.244 112.741 20.8104 113.285C21.6265 114.128 21.6265 114.128 22.8425 114.415C22.7662 113.71 22.7662 113.71 22.4507 112.969C22.2225 112.868 21.9943 112.767 21.7591 112.664C18.7865 111.244 16.5969 107.856 14.6406 105.399C12.5786 102.811 10.3569 100.472 7.95674 98.1464C7.08031 97.2905 6.20816 96.431 5.33705 95.5706C5.02574 95.2684 5.02574 95.2684 4.70814 94.9602C3.25598 93.528 3.25598 93.528 3.25598 92.7236C3.02976 92.6415 2.80354 92.5595 2.57046 92.475C1.41849 91.8549 0.837932 91.231 0.122147 90.1929C-0.10624 88.9019 -0.0645921 88.301 0.685259 87.1878C2.11673 86.3178 3.51818 86.2024 5.21463 86.2162C6.10827 86.3927 6.10827 86.3927 6.78155 86.5777C6.91488 85.2582 6.91488 85.2582 6.24292 84.1374C4.30889 81.666 4.60477 77.8123 4.48014 74.896C4.45186 74.44 4.42358 73.984 4.39445 73.5142C4.36567 72.8581 4.36567 72.8581 4.3363 72.1888C4.31667 71.793 4.29704 71.3972 4.27682 70.9895C4.52103 69.3412 5.39354 68.6504 7.09983 68.2305Z" fill="#ffffffff"/>
<path d="M145.627 87.1084C146.646 87.9619 146.917 88.6554 147 89.9175C146.603 92.4125 143.725 94.3423 141.863 96.0081C140.877 96.9084 139.974 97.8537 139.07 98.8229C138.409 99.5088 137.737 100.175 137.049 100.839C134.874 102.94 132.87 104.976 131.132 107.404C129.953 108.853 128.507 110.052 127.069 111.28C126.077 112.258 125.515 113.164 124.932 114.381C127.034 112.915 128.999 111.413 130.835 109.671C132.479 108.132 134.181 106.743 136.296 105.769C136.684 105.769 137.072 105.769 137.472 105.769C136.57 108.375 135.481 110.879 134.312 113.394C134.124 113.8 133.936 114.205 133.742 114.623C132.494 117.292 131.206 119.941 129.855 122.567C129.698 122.875 129.541 123.183 129.38 123.5C128.571 125.048 127.74 126.355 126.5 127.658C126.324 127.89 126.148 128.122 125.967 128.361C123.817 130.988 120.659 132.089 117.487 133.4C116.758 133.705 116.029 134.01 115.3 134.315C114.188 134.78 113.075 135.243 111.959 135.701C102.907 138.898 102.907 138.898 96.6122 145.001C96.3275 145.601 96.3275 145.601 95.9357 145.959C95.3103 145.993 94.6832 146.002 94.0567 146C93.6566 146 93.2566 146 92.8444 146C92.4093 145.998 91.9741 145.996 91.5259 145.995C91.0828 145.994 90.6398 145.993 90.1834 145.993C88.7619 145.991 87.3405 145.986 85.919 145.982C84.9581 145.98 83.9971 145.978 83.0361 145.977C80.6745 145.973 78.3129 145.967 75.9514 145.959C75.8476 136.286 81.6023 127.434 88.4906 120.481C88.8047 120.159 89.1189 119.837 89.4426 119.506C91.9572 117.059 94.7515 115.343 97.8949 113.663C98.2419 113.468 98.589 113.273 98.9465 113.072C102.028 111.487 105.356 110.744 108.77 109.971C112.526 109.086 115.92 107.732 118.761 105.253C119.082 104.975 119.402 104.697 119.733 104.41C120.026 104.148 120.32 103.886 120.622 103.615C120.863 103.409 121.104 103.202 121.352 102.989C122.704 101.802 123.884 100.534 125.055 99.1971C126.822 97.1902 128.684 95.2646 130.81 93.5677C131.069 93.5677 131.327 93.5677 131.594 93.5677C131.685 93.3632 131.776 93.1588 131.869 92.9481C134.11 89.3505 141.137 85.6463 145.627 87.1084Z" fill="#ffffffff"/>
<path d="M75.649 19.0812C77.6575 19.9786 79.0823 21.5169 80.6215 22.988C81.3818 23.6982 82.1542 24.3543 82.9749 25.0018C84.4508 26.1799 85.8103 27.4492 87.1752 28.7364C88.5078 29.9932 89.8306 31.2362 91.2777 32.3799C92.967 33.7148 94.497 35.1903 96.0525 36.6573C97.3965 37.9193 98.7739 39.1098 100.229 40.2603C101.327 41.1766 102.355 42.1511 103.39 43.1281C104.642 44.3097 105.887 45.4706 107.248 46.5439C109.042 47.9644 110.666 49.5399 112.32 51.0983C113.74 52.431 115.189 53.7 116.725 54.9167C118.849 56.658 120.795 58.5391 122.535 60.6168C122.793 60.737 123.051 60.8572 123.317 60.9811C123.317 61.3418 123.317 61.7025 123.317 62.0741C122.173 62.6073 121.146 62.5006 119.873 62.5068C119.395 62.512 118.918 62.5171 118.425 62.5225C115.659 62.3516 114.336 61.1604 112.425 59.4326C111.903 58.9691 111.38 58.5056 110.858 58.0421C110.592 57.8044 110.326 57.5667 110.052 57.3218C108.793 56.2015 107.52 55.096 106.247 53.9902C106.004 53.7786 105.762 53.5671 105.511 53.3491C103.984 52.0191 102.445 50.7018 100.899 49.3903C99.2129 47.9549 97.5919 46.4743 95.9877 44.9598C95.0294 44.078 94.0234 43.2638 93.0024 42.4464C91.458 41.1763 89.964 39.8561 88.4618 38.543C86.4961 36.8256 84.5134 35.1268 82.5201 33.4373C81.5068 32.5595 80.5304 31.6557 79.5562 30.7403C78.7837 30.0177 78.0014 29.3061 77.2118 28.5998C77.0134 28.4138 76.815 28.2278 76.6105 28.0362C75.7192 27.2477 75.1488 26.7461 73.8953 26.6855C72.5811 27.2363 71.565 28.0135 70.4964 28.8958C70.2744 29.0749 70.0524 29.2539 69.8238 29.4384C68.0785 30.8628 66.4358 32.3709 64.8157 33.9184C63.7655 34.8994 62.6584 35.7987 61.5297 36.6994C60.5608 37.4967 59.6661 38.3535 58.7611 39.2128C58.0409 39.8726 57.2937 40.4878 56.5282 41.1014C55.4309 41.9827 54.394 42.8946 53.378 43.8568C52.422 44.7602 51.4552 45.6255 50.4232 46.4528C48.8622 47.7054 47.3592 49.0111 45.8566 50.324C43.6769 52.228 41.4882 54.1215 39.2816 55.9984C38.4758 56.6865 37.6742 57.3776 36.8762 58.0734C36.6668 58.2551 36.4574 58.4368 36.2416 58.624C35.661 59.1278 35.0819 59.6331 34.5029 60.1386C32.1031 62.0613 30.5601 62.2219 27.4684 62.1425C26.9226 62.1351 26.9226 62.1351 26.3657 62.1275C25.4714 62.1147 24.5775 62.0967 23.6833 62.0741C24.0091 60.481 24.926 59.7576 26.1986 58.7267C26.4087 58.5519 26.6188 58.3771 26.8352 58.197C27.4753 57.665 28.1189 57.137 28.7627 56.6089C29.4636 56.0254 30.1637 55.441 30.8628 54.8555C31.3327 54.4638 31.3327 54.4638 31.8121 54.0642C32.5803 53.4065 33.3126 52.7306 34.0374 52.0318C35.0142 51.1437 35.0142 51.1437 35.7956 51.1437C36.2199 49.9569 36.2401 49.0801 36.248 47.8311C36.254 47.1454 36.254 47.1454 36.2601 46.4459C36.2621 46.0799 36.2621 46.0799 36.2642 45.7064C36.2688 44.9424 36.2764 44.1784 36.285 43.4144C36.309 41.2426 36.3302 39.0707 36.3432 36.8987C36.3513 35.5697 36.3651 34.2409 36.3825 32.912C36.3881 32.4051 36.3915 31.8983 36.3927 31.3914C36.3946 30.684 36.4043 29.9766 36.4143 29.2693C36.4175 28.8664 36.4207 28.4636 36.4239 28.0485C36.4745 27.7345 36.525 27.4204 36.5771 27.0968C37.8696 26.2933 38.2836 26.2748 39.7883 26.2714C40.1847 26.2704 40.5811 26.2695 40.9895 26.2685C41.403 26.2713 41.8165 26.2741 42.2425 26.277C42.656 26.2742 43.0695 26.2714 43.4955 26.2685C44.0901 26.2699 44.0901 26.2699 44.6967 26.2714C45.0596 26.2722 45.4225 26.273 45.7964 26.2738C46.7358 26.3681 46.7358 26.3681 47.9079 27.0968C48.0769 28.116 48.0769 28.116 48.1079 29.3996C48.1217 29.8575 48.1356 30.3155 48.1498 30.7873C48.1631 31.508 48.1631 31.508 48.1765 32.2432C48.1895 32.7314 48.203 33.2196 48.217 33.7077C48.2493 34.9046 48.2763 36.1014 48.2986 37.2985C51.127 37.2985 53.1522 34.927 55.1118 33.1612C55.6918 32.6157 56.2693 32.0677 56.8441 31.5174C57.8868 30.5433 58.9907 29.6507 60.1103 28.7549C60.6954 28.2767 61.2527 27.7692 61.8029 27.2562C62.5555 26.5544 63.3063 25.9298 64.1228 25.2979C65.0252 24.5902 65.6882 23.9548 66.4427 23.089C68.9262 20.3777 71.7494 18.59 75.649 19.0812Z" fill="#ffffffff"/>
<path d="M74.2855 31.1289C75.506 31.6994 76.0736 32.412 76.9091 33.4031C77.6953 34.2306 78.5194 34.8525 79.4613 35.5221C81.6019 37.097 83.4948 38.8368 85.393 40.6594C87.3892 42.5666 89.3912 44.4223 91.5582 46.1601C92.4948 46.9242 93.3626 47.7422 94.2296 48.5746C95.3893 49.6721 96.5556 50.7322 97.8086 51.736C99.0174 52.7133 100.203 53.7083 101.363 54.736C101.669 55.0039 101.975 55.2719 102.29 55.548C102.918 56.3282 102.918 56.3282 102.892 57.1431C102.523 57.8051 102.523 57.8051 101.338 58.1743C100.375 58.2165 99.4215 58.2389 98.4575 58.2443C98.019 58.2489 98.019 58.2489 97.5715 58.2536C96.9361 58.26 96.3006 58.2656 95.6651 58.2705C94.6549 58.2782 93.6448 58.2882 92.6346 58.2988C90.484 58.3208 88.3334 58.34 86.1828 58.3589C83.7029 58.3809 81.2229 58.4041 78.743 58.4298C77.7559 58.4395 76.7687 58.4472 75.7816 58.4549C72.7101 58.4834 69.6773 58.5843 66.6153 58.8318C64.4601 58.9754 62.3062 58.958 60.1466 58.9488C59.6718 58.9483 59.1969 58.9478 58.7076 58.9472C57.2111 58.9452 55.7146 58.9406 54.218 58.9358C53.1949 58.934 52.1719 58.9323 51.1488 58.9308C48.6586 58.9268 46.1684 58.9206 43.6783 58.9128C43.4527 58.214 43.4527 58.214 43.2833 57.4359C43.7322 56.8008 43.7322 56.8008 44.4296 56.171C44.6838 55.9376 44.9381 55.7041 45.2001 55.4636C45.4717 55.2235 45.7433 54.9833 46.0232 54.736C46.281 54.5001 46.5389 54.2643 46.8045 54.0213C48.3481 52.6208 49.9435 51.2866 51.5689 49.9701C52.971 48.8155 54.3196 47.6082 55.6743 46.4054C58.3418 44.048 61.0111 41.6949 63.8028 39.4652C65.6962 37.9511 67.4568 36.3398 69.1959 34.6736C72.7733 31.2703 72.7733 31.2703 74.2855 31.1289Z" fill="#ffffffff"/>
<path d="M87.8221 80.5771C88.3562 80.5647 88.3562 80.5647 88.901 80.5521C90.5409 80.5261 92.1806 80.505 93.8206 80.4908C94.6837 80.4811 95.5468 80.4662 96.4097 80.4458C97.6554 80.4167 98.9001 80.4046 100.146 80.396C100.529 80.3839 100.911 80.3718 101.305 80.3594C103.442 80.3652 104.58 80.5866 106.181 81.9356C106.415 82.167 106.648 82.3985 106.889 82.637C107.783 83.3482 108.471 83.408 109.617 83.5911C110.109 84.4978 110.076 85.1189 110.091 86.1332C110.098 86.51 110.104 86.8867 110.111 87.2748C110.128 88.9967 110.145 90.7185 110.154 92.4404C110.16 93.3497 110.171 94.2589 110.186 95.1681C110.208 96.4769 110.217 97.7852 110.223 99.0941C110.232 99.5011 110.241 99.9081 110.25 100.327C110.242 103.142 110.242 103.142 109.082 104.358C106.414 105.59 103.532 105.301 100.617 105.304C100.171 105.305 100.171 105.305 99.7168 105.306C95.3846 105.309 91.1417 105.211 86.9433 104.113C86.3139 103.533 86.4834 102.937 86.4702 102.132C86.4635 101.788 86.4569 101.444 86.45 101.089C86.4446 100.713 86.4392 100.338 86.4337 99.9502C86.4227 99.37 86.4227 99.37 86.4115 98.7782C86.388 97.5332 86.3671 96.2881 86.3467 95.043C86.3195 93.4187 86.2908 91.7945 86.2597 90.1702C86.2524 89.782 86.2451 89.3938 86.2376 88.9938C86.1852 86.5755 86.061 84.1853 85.7912 81.7785C85.7776 81.5301 85.764 81.2818 85.75 81.0259C86.3668 80.4577 86.9634 80.596 87.8221 80.5771Z" fill="#ffffffff"/>
<path d="M75.416 19.1098C77.4343 20.0067 78.8661 21.5439 80.4128 23.014C81.1768 23.7237 81.953 24.3795 82.7778 25.0266C84.2609 26.2039 85.627 27.4723 86.9985 28.7587C88.3377 30.0146 89.6669 31.2569 91.1211 32.3997C92.8186 33.7338 94.3561 35.2083 95.9192 36.6743C97.2698 37.9356 98.6539 39.1252 100.116 40.275C101.219 41.1907 102.253 42.1645 103.293 43.1409C104.55 44.3217 105.802 45.4819 107.17 46.5544C108.972 47.974 110.605 49.5484 112.266 51.1058C113.693 52.4377 115.149 53.7058 116.693 54.9217C118.828 56.6619 120.782 58.5417 122.531 60.618C122.791 60.7382 123.05 60.8583 123.317 60.9821C123.317 61.3426 123.317 61.7031 123.317 62.0744C122.167 62.6073 121.136 62.5006 119.857 62.5068C119.376 62.512 118.896 62.5171 118.401 62.5225C115.621 62.3517 114.292 61.1613 112.372 59.4347C111.847 58.9714 111.322 58.5082 110.797 58.0451C110.53 57.8075 110.262 57.57 109.987 57.3252C108.722 56.2057 107.443 55.1009 106.164 53.9958C105.92 53.7844 105.676 53.573 105.424 53.3552C103.89 52.026 102.343 50.7096 100.79 49.399C99.0951 47.9645 97.4661 46.4849 95.8541 44.9714C94.8911 44.0902 93.8803 43.2765 92.8542 42.4596C91.3023 41.1904 89.801 39.871 88.2915 38.5588C86.3161 36.8426 84.3237 35.1449 82.3207 33.4565C81.3025 32.5792 80.3213 31.6761 79.3423 30.7612C78.5661 30.0391 77.7799 29.328 76.9865 28.6221C76.6874 28.3433 76.6874 28.3433 76.3822 28.0589C75.1832 26.9975 75.1832 26.9975 73.6001 26.7532C72.6515 27.0763 72.6515 27.0763 71.9447 27.686C70.9127 28.3271 70.3953 28.3255 69.1677 28.2651C68.6226 28.2401 68.6226 28.2401 68.0665 28.2146C67.6899 28.1914 67.3134 28.1682 66.9254 28.1442C66.5458 28.128 66.1662 28.1118 65.7751 28.0952C62.9587 27.9474 62.9587 27.9474 62.0667 27.1202C63.9247 25.0032 65.894 23.1426 68.1769 21.4082C68.5418 21.129 68.9068 20.8497 69.2827 20.562C71.3192 19.1294 72.8827 18.7925 75.416 19.1098Z" fill="#ffffffff"/>
<path d="M47.0046 86.801C47.4099 86.8031 47.8151 86.8052 48.2326 86.8074C49.5218 86.8157 50.8107 86.8345 52.0998 86.8535C52.9759 86.861 53.8521 86.8678 54.7282 86.8739C56.8715 86.8903 59.0146 86.9153 61.1578 86.9469C61.1772 89.3128 61.1906 91.6788 61.1999 94.0448C61.2037 94.8497 61.209 95.6546 61.2156 96.4595C61.2249 97.6164 61.2293 98.7732 61.2327 99.9301C61.2366 100.29 61.2406 100.65 61.2446 101.021C61.2447 101.525 61.2447 101.525 61.2448 102.04C61.2465 102.335 61.2482 102.63 61.25 102.935C61.147 103.847 60.8583 104.455 60.391 105.246C58.0727 105.265 55.7544 105.278 53.4361 105.287C52.6493 105.291 51.8625 105.296 51.0757 105.302C40.291 105.389 40.291 105.389 37.7699 103.752C37.6483 102.812 37.5996 101.964 37.6037 101.023C37.6017 100.753 37.5996 100.483 37.5976 100.205C37.5951 99.6341 37.5956 99.063 37.5989 98.492C37.6022 97.618 37.5911 96.7449 37.579 95.871C37.5783 95.3164 37.5786 94.7618 37.5797 94.2073C37.5754 93.9458 37.5711 93.6844 37.5667 93.415C37.5775 92.6749 37.5775 92.6749 37.7699 91.4283C38.5157 90.7513 38.5157 90.7513 39.3035 90.3079C39.5645 89.8573 39.5645 89.8573 39.8307 89.3976C41.6209 86.6479 43.9416 86.7405 47.0046 86.801Z" fill="#ffffffff"/>
<path d="M6.96432 68.2305C8.64661 68.5853 9.32205 69.1899 10.3936 70.3823C12.9758 74.3322 13.1033 79.2764 13.0609 83.7313C13.0591 84.0944 13.0573 84.4576 13.0554 84.8317C13.0508 85.7193 13.0442 86.6069 13.0359 87.4945C11.3511 87.2302 10.2344 86.7828 8.7883 85.9489C8.4121 85.7359 8.0359 85.5229 7.64831 85.3035C5.79919 84.064 5.23667 82.9467 4.79951 80.9574C4.47324 78.926 4.38095 76.8874 4.29081 74.8385C4.26196 74.3864 4.2331 73.9343 4.20336 73.4686C4.18378 73.035 4.1642 72.6014 4.14402 72.1547C4.12399 71.7623 4.10395 71.3699 4.08331 70.9656C4.33255 69.3317 5.22297 68.6468 6.96432 68.2305Z" fill="#ffffffff"/>
<path d="M142.377 68.549C143.145 69.2466 142.853 70.5262 142.86 71.4765C142.862 71.736 142.864 71.9954 142.867 72.2627C142.87 72.8143 142.873 73.366 142.875 73.9176C142.878 74.7533 142.891 75.5886 142.903 76.4243C142.95 81.7465 142.95 81.7465 141.575 83.8512C140.659 84.6537 139.676 85.2545 138.592 85.855C138.323 86.0156 138.055 86.1762 137.779 86.3417C136.32 87.1878 135.762 87.4945 133.954 87.4945C133.842 84.531 134.202 81.6951 134.7 78.7753C134.831 78 134.951 77.2238 135.07 76.447C135.515 73.7196 136.009 71.126 137.965 68.9134C139.649 67.8935 140.42 68.2337 142.377 68.549Z" fill="#ffffffff"/>
<path d="M131.757 74.6523C132.189 74.6523 132.62 74.6523 133.065 74.6523C133.147 83.0515 133.147 83.0515 132.956 86.7011C132.925 87.3552 132.925 87.3552 132.894 88.0225C132.39 90.2625 130.639 91.6801 128.707 93.2029C128.276 93.0829 127.844 92.9628 127.4 92.8392C127.608 90.0428 127.953 87.3045 128.51 84.5414C128.702 83.4122 128.766 82.3158 128.816 81.1769C129.018 78.7015 130.287 76.7701 131.757 74.6523Z" fill="#18195C"/>
<path d="M20.4232 84.6406C21.1825 84.7411 21.1825 84.7411 22.049 84.9882C23.5856 87.0908 24.1182 89.1688 24.5893 91.5925C24.6595 91.9214 24.7297 92.2503 24.802 92.5891C25.1893 94.487 25.3749 96.2711 25.3006 98.1968C24.0285 98.0802 23.6745 97.849 22.7857 97.0237C21.3211 95.2097 21.3156 93.0992 21.0075 90.9625C20.9512 90.5868 20.8948 90.2111 20.8368 89.824C20.7836 89.459 20.7305 89.0941 20.6757 88.7181C20.6272 88.3861 20.5787 88.0542 20.5287 87.7122C20.4186 86.6829 20.4055 85.6736 20.4232 84.6406Z" fill="#ffffffff"/>
<path d="M125.706 84.6406C125.96 84.6406 126.213 84.6406 126.474 84.6406C126.673 89.0328 126.906 94.3841 124.171 98.1968C123.918 98.1968 123.664 98.1968 123.403 98.1968C123.171 93.7972 123.244 88.5577 125.706 84.6406Z" fill="#ffffffff"/>
<path d="M26.9856 94.6289C27.2397 94.6289 27.4938 94.6289 27.7555 94.6289C29.5234 99.6551 29.5234 99.6551 29.2954 102.477C28.9143 102.477 28.5332 102.477 28.1405 102.477C27.2604 99.8022 26.8161 97.4386 26.9856 94.6289Z" fill="#ffffffff"/>
<path d="M119.377 94.6289C119.584 94.6289 119.79 94.6289 120.003 94.6289C120.102 97.2937 120.143 99.3915 119.064 101.764C118.857 101.764 118.65 101.764 118.437 101.764C118.363 99.3319 118.452 96.8467 119.377 94.6289Z" fill="#ffffffff"/>
<path d="M16.3333 76.0781C18.082 77.494 18.3412 79.2101 18.8149 81.0725C18.9027 81.3887 18.9904 81.7049 19.0808 82.0306C19.7575 84.6024 19.7575 84.6024 19.1694 86.0669C18.1213 84.8364 17.9946 84.118 17.7514 82.6679C17.494 81.2338 17.2201 79.837 16.7469 78.4366C16.3333 77.188 16.3333 77.188 16.3333 76.0781Z" fill="#ffffffff"/>
<path d="M125.228 84.6406C125.406 84.6406 125.583 84.6406 125.767 84.6406C125.767 86.7597 125.767 88.8787 125.767 91.062C125.678 91.062 125.589 91.062 125.497 91.062C125.408 89.6493 125.319 88.2366 125.228 86.7811C125.139 86.7811 125.05 86.7811 124.958 86.7811C124.947 86.1867 124.947 85.5918 124.958 84.9974C125.047 84.8796 125.136 84.7619 125.228 84.6406Z" fill="#ffffffff"/>
</svg>
