<svg width="975" height="169" viewBox="0 0 975 169" fill="none" xmlns="http://www.w3.org/2000/svg">
<path d="M207.994 77V19.5455H230.661C235 19.5455 238.703 20.3216 241.771 21.8739C244.857 23.4076 247.204 25.5864 248.812 28.4105C250.439 31.2159 251.253 34.5169 251.253 38.3136C251.253 42.1289 250.43 45.4112 248.784 48.1605C247.138 50.8911 244.754 52.9858 241.63 54.4446C238.526 55.9034 234.766 56.6328 230.353 56.6328H215.175V46.87H228.389C230.708 46.87 232.634 46.5521 234.168 45.9162C235.702 45.2803 236.842 44.3265 237.591 43.0547C238.357 41.7829 238.741 40.2025 238.741 38.3136C238.741 36.4059 238.357 34.7975 237.591 33.4883C236.842 32.1791 235.692 31.1879 234.14 30.5146C232.606 29.8226 230.671 29.4766 228.333 29.4766H220.141V77H207.994ZM239.021 50.8537L253.301 77H239.891L225.92 50.8537H239.021ZM291.005 36.0692C290.781 33.8062 289.818 32.0482 288.116 30.7951C286.414 29.542 284.104 28.9155 281.186 28.9155C279.204 28.9155 277.53 29.196 276.165 29.7571C274.799 30.2995 273.752 31.0569 273.023 32.0295C272.312 33.002 271.957 34.1055 271.957 35.3398C271.919 36.3685 272.134 37.2662 272.602 38.033C273.088 38.7998 273.752 39.4638 274.594 40.0249C275.435 40.5672 276.408 41.0442 277.511 41.4556C278.615 41.8484 279.793 42.185 281.046 42.4656L286.208 43.6999C288.714 44.261 291.015 45.0091 293.109 45.9442C295.204 46.8794 297.018 48.0296 298.552 49.3949C300.085 50.7602 301.273 52.3686 302.115 54.2202C302.975 56.0717 303.415 58.1945 303.433 60.5884C303.415 64.1045 302.517 67.1531 300.74 69.734C298.982 72.2963 296.438 74.2881 293.109 75.7095C289.799 77.1122 285.806 77.8136 281.13 77.8136C276.492 77.8136 272.452 77.1029 269.011 75.6815C265.588 74.2601 262.914 72.156 260.988 69.3693C259.08 66.5639 258.079 63.0946 257.986 58.9613H269.74C269.871 60.8877 270.423 62.4961 271.396 63.7866C272.387 65.0584 273.705 66.0215 275.351 66.6761C277.016 67.312 278.895 67.63 280.99 67.63C283.047 67.63 284.833 67.3307 286.348 66.7322C287.882 66.1338 289.07 65.3015 289.911 64.2354C290.753 63.1694 291.174 61.9444 291.174 60.5604C291.174 59.2699 290.79 58.1851 290.023 57.3061C289.275 56.4271 288.172 55.679 286.713 55.0618C285.273 54.4446 283.506 53.8835 281.411 53.3786L275.155 51.8075C270.311 50.6293 266.486 48.787 263.681 46.2809C260.875 43.7747 259.482 40.3989 259.501 36.1534C259.482 32.6747 260.408 29.6355 262.278 27.0359C264.167 24.4362 266.757 22.407 270.049 20.9482C273.341 19.4893 277.081 18.7599 281.271 18.7599C285.535 18.7599 289.257 19.4893 292.436 20.9482C295.634 22.407 298.122 24.4362 299.898 27.0359C301.675 29.6355 302.592 32.6467 302.648 36.0692H291.005ZM361.056 36.0692C360.832 33.8062 359.868 32.0482 358.167 30.7951C356.465 29.542 354.155 28.9155 351.237 28.9155C349.255 28.9155 347.581 29.196 346.216 29.7571C344.85 30.2995 343.803 31.0569 343.074 32.0295C342.363 33.002 342.007 34.1055 342.007 35.3398C341.97 36.3685 342.185 37.2662 342.653 38.033C343.139 38.7998 343.803 39.4638 344.645 40.0249C345.486 40.5672 346.459 41.0442 347.562 41.4556C348.666 41.8484 349.844 42.185 351.097 42.4656L356.259 43.6999C358.765 44.261 361.065 45.0091 363.16 45.9442C365.255 46.8794 367.069 48.0296 368.603 49.3949C370.136 50.7602 371.324 52.3686 372.165 54.2202C373.026 56.0717 373.465 58.1945 373.484 60.5884C373.465 64.1045 372.568 67.1531 370.791 69.734C369.033 72.2963 366.489 74.2881 363.16 75.7095C359.85 77.1122 355.857 77.8136 351.181 77.8136C346.543 77.8136 342.503 77.1029 339.062 75.6815C335.639 74.2601 332.965 72.156 331.038 69.3693C329.131 66.5639 328.13 63.0946 328.037 58.9613H339.791C339.922 60.8877 340.474 62.4961 341.446 63.7866C342.438 65.0584 343.756 66.0215 345.402 66.6761C347.067 67.312 348.946 67.63 351.041 67.63C353.098 67.63 354.884 67.3307 356.399 66.7322C357.933 66.1338 359.12 65.3015 359.962 64.2354C360.804 63.1694 361.224 61.9444 361.224 60.5604C361.224 59.2699 360.841 58.1851 360.074 57.3061C359.326 56.4271 358.223 55.679 356.764 55.0618C355.324 54.4446 353.556 53.8835 351.462 53.3786L345.206 51.8075C340.362 50.6293 336.537 48.787 333.732 46.2809C330.926 43.7747 329.533 40.3989 329.551 36.1534C329.533 32.6747 330.459 29.6355 332.329 27.0359C334.218 24.4362 336.808 22.407 340.1 20.9482C343.391 19.4893 347.132 18.7599 351.321 18.7599C355.586 18.7599 359.307 19.4893 362.487 20.9482C365.685 22.407 368.172 24.4362 369.949 27.0359C371.726 29.6355 372.642 32.6467 372.699 36.0692H361.056ZM400.9 77.8416C396.542 77.8416 392.773 76.9158 389.594 75.0643C386.433 73.194 383.993 70.5943 382.272 67.2653C380.551 63.9175 379.691 60.0367 379.691 55.6229C379.691 51.1716 380.551 47.2815 382.272 43.9524C383.993 40.6046 386.433 38.005 389.594 36.1534C392.773 34.2831 396.542 33.348 400.9 33.348C405.257 33.348 409.017 34.2831 412.177 36.1534C415.357 38.005 417.807 40.6046 419.528 43.9524C421.248 47.2815 422.109 51.1716 422.109 55.6229C422.109 60.0367 421.248 63.9175 419.528 67.2653C417.807 70.5943 415.357 73.194 412.177 75.0643C409.017 76.9158 405.257 77.8416 400.9 77.8416ZM400.956 68.5838C402.938 68.5838 404.594 68.0227 405.921 66.9006C407.249 65.7597 408.25 64.2074 408.923 62.2436C409.615 60.2798 409.961 58.0449 409.961 55.5387C409.961 53.0326 409.615 50.7976 408.923 48.8338C408.25 46.87 407.249 45.3177 405.921 44.1768C404.594 43.036 402.938 42.4656 400.956 42.4656C398.955 42.4656 397.271 43.036 395.906 44.1768C394.56 45.3177 393.54 46.87 392.848 48.8338C392.175 50.7976 391.838 53.0326 391.838 55.5387C391.838 58.0449 392.175 60.2798 392.848 62.2436C393.54 64.2074 394.56 65.7597 395.906 66.9006C397.271 68.0227 398.955 68.5838 400.956 68.5838ZM441.831 19.5455V77H429.88V19.5455H441.831ZM463.692 77.8136C460.942 77.8136 458.492 77.3366 456.341 76.3828C454.191 75.4103 452.489 73.9795 451.236 72.0906C450.001 70.1829 449.384 67.8076 449.384 64.9648C449.384 62.5709 449.824 60.5604 450.703 58.9332C451.582 57.3061 452.779 55.9969 454.294 55.0057C455.808 54.0144 457.529 53.2663 459.455 52.7614C461.401 52.2564 463.439 51.901 465.571 51.6953C468.077 51.4335 470.097 51.1903 471.631 50.9659C473.164 50.7228 474.277 50.3674 474.969 49.8999C475.661 49.4323 476.007 48.7403 476.007 47.8239V47.6555C476.007 45.8788 475.446 44.5041 474.324 43.5316C473.221 42.5591 471.65 42.0728 469.611 42.0728C467.46 42.0728 465.749 42.5497 464.477 43.5036C463.205 44.4387 462.364 45.617 461.952 47.0384L450.899 46.1406C451.46 43.5223 452.564 41.2592 454.209 39.3516C455.855 37.4252 457.978 35.9477 460.578 34.919C463.196 33.8717 466.226 33.348 469.667 33.348C472.061 33.348 474.352 33.6286 476.54 34.1896C478.747 34.7507 480.702 35.6204 482.404 36.7986C484.124 37.9769 485.48 39.4918 486.471 41.3434C487.463 43.1763 487.958 45.3738 487.958 47.9361V77H476.624V71.0245H476.288C475.596 72.3711 474.67 73.5587 473.51 74.5874C472.351 75.5973 470.958 76.3922 469.33 76.9719C467.703 77.533 465.824 77.8136 463.692 77.8136ZM467.114 69.5657C468.872 69.5657 470.425 69.2197 471.771 68.5277C473.118 67.817 474.174 66.8632 474.941 65.6662C475.708 64.4692 476.091 63.1133 476.091 61.5984V57.0256C475.717 57.2687 475.203 57.4931 474.548 57.6989C473.913 57.8859 473.193 58.0636 472.388 58.2319C471.584 58.3815 470.78 58.5218 469.976 58.6527C469.171 58.7649 468.442 58.8678 467.787 58.9613C466.385 59.167 465.16 59.4943 464.112 59.9432C463.065 60.392 462.251 60.9999 461.672 61.7667C461.092 62.5148 460.802 63.4499 460.802 64.5721C460.802 66.1992 461.391 67.4429 462.569 68.3033C463.766 69.1449 465.281 69.5657 467.114 69.5657ZM497.23 77V33.9091H508.816V41.4276H509.265C510.051 38.7531 511.369 36.7332 513.221 35.3679C515.072 33.9839 517.205 33.2919 519.617 33.2919C520.216 33.2919 520.861 33.3293 521.553 33.4041C522.245 33.4789 522.853 33.5818 523.376 33.7127V44.3171C522.815 44.1488 522.039 43.9992 521.048 43.8683C520.057 43.7373 519.15 43.6719 518.327 43.6719C516.569 43.6719 514.998 44.0553 513.614 44.8221C512.248 45.5702 511.164 46.6175 510.359 47.9641C509.574 49.3107 509.181 50.863 509.181 52.6211V77H497.23Z" fill="#ffffffff"/>
<path d="M598.757 39.6602H586.47C586.245 38.0704 585.787 36.6584 585.095 35.424C584.403 34.1709 583.515 33.1049 582.43 32.2259C581.345 31.3468 580.092 30.6735 578.671 30.206C577.268 29.7384 575.744 29.5046 574.098 29.5046C571.124 29.5046 568.534 30.2434 566.327 31.7209C564.12 33.1797 562.409 35.3118 561.193 38.1172C559.978 40.9039 559.37 44.2891 559.37 48.2727C559.37 52.3686 559.978 55.8099 561.193 58.5966C562.428 61.3833 564.148 63.4873 566.355 64.9087C568.562 66.3301 571.115 67.0408 574.014 67.0408C575.641 67.0408 577.147 66.8258 578.531 66.3956C579.933 65.9654 581.177 65.3389 582.262 64.516C583.346 63.6744 584.244 62.6551 584.955 61.4581C585.684 60.2611 586.189 58.8958 586.47 57.3622L598.757 57.4183C598.44 60.0554 597.645 62.599 596.373 65.049C595.12 67.4804 593.427 69.6592 591.295 71.5856C589.182 73.4933 586.657 75.0082 583.721 76.1303C580.803 77.2338 577.502 77.7855 573.817 77.7855C568.693 77.7855 564.111 76.6259 560.071 74.3068C556.05 71.9877 552.871 68.6306 550.533 64.2354C548.214 59.8403 547.054 54.5194 547.054 48.2727C547.054 42.0073 548.232 36.6771 550.589 32.282C552.945 27.8868 556.143 24.5391 560.183 22.2386C564.223 19.9195 568.768 18.7599 573.817 18.7599C577.147 18.7599 580.232 19.2275 583.075 20.1626C585.937 21.0978 588.471 22.4631 590.678 24.2585C592.885 26.0353 594.68 28.2141 596.064 30.7951C597.467 33.3761 598.365 36.3311 598.757 39.6602ZM616.291 77H603.274L623.108 19.5455H638.762L658.569 77H645.551L631.16 32.6747H630.711L616.291 77ZM615.478 54.4165H646.225V63.8988H615.478V54.4165ZM685.851 77H665.484V19.5455H686.019C691.798 19.5455 696.773 20.6957 700.944 22.9961C705.115 25.2778 708.322 28.5601 710.567 32.843C712.83 37.1259 713.961 42.2505 713.961 48.2166C713.961 54.2015 712.83 59.3447 710.567 63.6463C708.322 67.9479 705.096 71.2489 700.888 73.5494C696.699 75.8498 691.686 77 685.851 77ZM677.631 66.592H685.346C688.937 66.592 691.957 65.9561 694.407 64.6843C696.876 63.3938 698.728 61.402 699.962 58.7088C701.215 55.9969 701.842 52.4995 701.842 48.2166C701.842 43.9711 701.215 40.5018 699.962 37.8086C698.728 35.1154 696.886 33.1329 694.436 31.8611C691.986 30.5894 688.965 29.9535 685.374 29.9535H677.631V66.592ZM779.341 38.1172C778.948 36.7519 778.396 35.5456 777.686 34.4982C776.975 33.4322 776.105 32.5344 775.077 31.805C774.067 31.0569 772.907 30.4865 771.598 30.0938C770.308 29.701 768.877 29.5046 767.306 29.5046C764.369 29.5046 761.788 30.234 759.563 31.6928C757.356 33.1516 755.635 35.2744 754.401 38.0611C753.167 40.8291 752.549 44.2143 752.549 48.2166C752.549 52.219 753.157 55.6229 754.373 58.4283C755.589 61.2337 757.309 63.3751 759.535 64.8526C761.76 66.3114 764.388 67.0408 767.418 67.0408C770.167 67.0408 772.514 66.5546 774.46 65.582C776.423 64.5908 777.92 63.1974 778.948 61.402C779.996 59.6065 780.519 57.4838 780.519 55.0337L782.988 55.3984H768.175V46.2528H792.218V53.4908C792.218 58.5405 791.152 62.8795 789.02 66.5078C786.887 70.1174 783.951 72.9041 780.211 74.8679C776.47 76.813 772.187 77.7855 767.362 77.7855C761.975 77.7855 757.244 76.5979 753.167 74.2227C749.089 71.8287 745.91 68.4342 743.628 64.0391C741.365 59.6252 740.234 54.3885 740.234 48.3288C740.234 43.6719 740.907 39.5199 742.254 35.8729C743.619 32.2071 745.527 29.1025 747.977 26.5589C750.427 24.0154 753.279 22.0797 756.533 20.7518C759.787 19.4239 763.313 18.7599 767.109 18.7599C770.364 18.7599 773.393 19.2369 776.199 20.1907C779.004 21.1258 781.492 22.4537 783.661 24.1744C785.849 25.895 787.636 27.9429 789.02 30.3182C790.404 32.6747 791.292 35.2744 791.685 38.1172H779.341ZM801.118 77V33.9091H812.704V41.4276H813.153C813.938 38.7531 815.257 36.7332 817.109 35.3679C818.96 33.9839 821.092 33.2919 823.505 33.2919C824.103 33.2919 824.749 33.3293 825.441 33.4041C826.133 33.4789 826.74 33.5818 827.264 33.7127V44.3171C826.703 44.1488 825.927 43.9992 824.936 43.8683C823.944 43.7373 823.037 43.6719 822.214 43.6719C820.456 43.6719 818.885 44.0553 817.501 44.8221C816.136 45.5702 815.051 46.6175 814.247 47.9641C813.462 49.3107 813.069 50.863 813.069 52.6211V77H801.118ZM850.907 77.8416C846.549 77.8416 842.78 76.9158 839.601 75.0643C836.44 73.194 833.999 70.5943 832.279 67.2653C830.558 63.9175 829.698 60.0367 829.698 55.6229C829.698 51.1716 830.558 47.2815 832.279 43.9524C833.999 40.6046 836.44 38.005 839.601 36.1534C842.78 34.2831 846.549 33.348 850.907 33.348C855.264 33.348 859.024 34.2831 862.184 36.1534C865.364 38.005 867.814 40.6046 869.534 43.9524C871.255 47.2815 872.115 51.1716 872.115 55.6229C872.115 60.0367 871.255 63.9175 869.534 67.2653C867.814 70.5943 865.364 73.194 862.184 75.0643C859.024 76.9158 855.264 77.8416 850.907 77.8416ZM850.963 68.5838C852.945 68.5838 854.6 68.0227 855.928 66.9006C857.256 65.7597 858.257 64.2074 858.93 62.2436C859.622 60.2798 859.968 58.0449 859.968 55.5387C859.968 53.0326 859.622 50.7976 858.93 48.8338C858.257 46.87 857.256 45.3177 855.928 44.1768C854.6 43.036 852.945 42.4656 850.963 42.4656C848.962 42.4656 847.278 43.036 845.913 44.1768C844.566 45.3177 843.547 46.87 842.855 48.8338C842.182 50.7976 841.845 53.0326 841.845 55.5387C841.845 58.0449 842.182 60.2798 842.855 62.2436C843.547 64.2074 844.566 65.7597 845.913 66.9006C847.278 68.0227 848.962 68.5838 850.963 68.5838ZM907.52 58.6527V33.9091H919.471V77H907.996V69.1729H907.548C906.575 71.6978 904.957 73.727 902.694 75.2607C900.45 76.7943 897.71 77.5611 894.474 77.5611C891.594 77.5611 889.06 76.9065 886.872 75.5973C884.684 74.2881 882.972 72.4272 881.738 70.0146C880.522 67.6019 879.905 64.7124 879.886 61.3459V33.9091H891.837V59.2138C891.856 61.7573 892.539 63.7679 893.885 65.2454C895.232 66.7229 897.037 67.4616 899.3 67.4616C900.74 67.4616 902.086 67.1344 903.339 66.4798C904.593 65.8065 905.603 64.8152 906.369 63.506C907.155 62.1969 907.538 60.5791 907.52 58.6527ZM929.03 93.1591V33.9091H940.813V41.147H941.346C941.869 39.9875 942.627 38.8092 943.618 37.6122C944.628 36.3965 945.937 35.3866 947.546 34.5824C949.173 33.7595 951.193 33.348 953.605 33.348C956.747 33.348 959.646 34.1709 962.302 35.8168C964.958 37.4439 967.08 39.9033 968.67 43.195C970.26 46.4679 971.055 50.5732 971.055 55.5107C971.055 60.3172 970.279 64.3757 968.726 67.6861C967.193 70.9777 965.098 73.4746 962.442 75.1765C959.805 76.8597 956.85 77.7013 953.577 77.7013C951.258 77.7013 949.285 77.3179 947.658 76.5511C946.049 75.7843 944.731 74.8211 943.702 73.6616C942.674 72.4833 941.888 71.2957 941.346 70.0987H940.981V93.1591H929.03ZM940.728 55.4545C940.728 58.0168 941.084 60.2518 941.794 62.1594C942.505 64.0671 943.534 65.554 944.88 66.62C946.227 67.6674 947.863 68.1911 949.79 68.1911C951.735 68.1911 953.381 67.658 954.727 66.592C956.074 65.5072 957.093 64.011 957.785 62.1033C958.496 60.177 958.851 57.9607 958.851 55.4545C958.851 52.9671 958.505 50.7789 957.813 48.8899C957.121 47.0009 956.102 45.5234 954.755 44.4574C953.409 43.3913 951.754 42.8583 949.79 42.8583C947.845 42.8583 946.199 43.3726 944.852 44.4013C943.524 45.4299 942.505 46.8887 941.794 48.7777C941.084 50.6667 940.728 52.8923 940.728 55.4545Z" fill="#ffffffff"/>
<path d="M304.83 153.62L293.574 138.374L298.824 134.72L309.954 149.84L304.83 153.62ZM296.052 149.42C293.84 149.42 291.81 149.042 289.962 148.286C288.114 147.53 286.504 146.466 285.132 145.094C283.76 143.722 282.696 142.112 281.94 140.264C281.184 138.416 280.806 136.386 280.806 134.174C280.806 131.962 281.184 129.932 281.94 128.084C282.696 126.236 283.76 124.626 285.132 123.254C286.504 121.882 288.114 120.818 289.962 120.062C291.81 119.306 293.84 118.928 296.052 118.928C298.264 118.928 300.294 119.306 302.142 120.062C303.99 120.818 305.6 121.882 306.972 123.254C308.344 124.626 309.394 126.236 310.122 128.084C310.878 129.932 311.256 131.962 311.256 134.174C311.256 136.358 310.878 138.388 310.122 140.264C309.394 142.112 308.344 143.722 306.972 145.094C305.6 146.466 303.99 147.53 302.142 148.286C300.294 149.042 298.264 149.42 296.052 149.42ZM296.052 142.7C297.2 142.7 298.25 142.49 299.202 142.07C300.182 141.65 301.022 141.062 301.722 140.306C302.45 139.522 303.01 138.612 303.402 137.576C303.794 136.54 303.99 135.406 303.99 134.174C303.99 132.942 303.794 131.808 303.402 130.772C303.01 129.736 302.45 128.84 301.722 128.084C301.022 127.3 300.182 126.698 299.202 126.278C298.25 125.858 297.2 125.648 296.052 125.648C294.904 125.648 293.84 125.858 292.86 126.278C291.908 126.698 291.068 127.3 290.34 128.084C289.612 128.84 289.052 129.736 288.66 130.772C288.296 131.808 288.114 132.942 288.114 134.174C288.114 135.406 288.296 136.554 288.66 137.618C289.052 138.654 289.612 139.55 290.34 140.306C291.068 141.062 291.908 141.65 292.86 142.07C293.84 142.49 294.904 142.7 296.052 142.7ZM329.17 149.252C326.734 149.252 324.564 148.762 322.66 147.782C320.756 146.774 319.258 145.402 318.166 143.666C317.102 141.93 316.57 139.942 316.57 137.702V119.6H323.794V137.324C323.794 138.388 324.032 139.354 324.508 140.222C324.984 141.062 325.628 141.734 326.44 142.238C327.252 142.714 328.162 142.952 329.17 142.952C330.234 142.952 331.172 142.714 331.984 142.238C332.824 141.734 333.496 141.062 334 140.222C334.504 139.354 334.756 138.388 334.756 137.324V119.6H341.728V137.702C341.728 139.942 341.182 141.93 340.09 143.666C339.026 145.402 337.542 146.774 335.638 147.782C333.734 148.762 331.578 149.252 329.17 149.252ZM344.337 149L355.971 119.6H362.019L373.569 149H366.345L360.801 134.09C360.577 133.502 360.353 132.872 360.129 132.2C359.905 131.528 359.681 130.842 359.457 130.142C359.233 129.414 359.009 128.714 358.785 128.042C358.589 127.342 358.421 126.698 358.281 126.11L359.541 126.068C359.373 126.768 359.177 127.454 358.953 128.126C358.757 128.798 358.547 129.47 358.323 130.142C358.127 130.786 357.903 131.444 357.651 132.116C357.399 132.76 357.161 133.432 356.937 134.132L351.393 149H344.337ZM349.881 143.372L352.107 137.996H365.631L367.815 143.372H349.881ZM377.237 149V119.6H384.377V142.7H397.481V149H377.237ZM402.243 149V142.994H407.199V125.606H402.243V119.6H419.337V125.606H414.339V142.994H419.337V149H402.243ZM432.512 149V125.9H423.776V119.6H448.598V125.9H439.652V149H432.512ZM461.661 149V134.342L461.955 136.4L450.069 119.6H458.175L467.247 132.62L463.551 132.494L471.741 119.6H479.595L468.213 136.862L468.843 134.006V149H461.661ZM496.469 149V119.6H508.775C510.931 119.6 512.905 119.964 514.697 120.692C516.489 121.392 518.029 122.4 519.317 123.716C520.633 125.032 521.641 126.586 522.341 128.378C523.041 130.17 523.391 132.144 523.391 134.3C523.391 136.456 523.041 138.444 522.341 140.264C521.641 142.056 520.633 143.61 519.317 144.926C518.029 146.214 516.489 147.222 514.697 147.95C512.905 148.65 510.931 149 508.775 149H496.469ZM503.609 144.128L502.643 142.7H508.565C509.741 142.7 510.791 142.504 511.715 142.112C512.639 141.692 513.423 141.118 514.067 140.39C514.739 139.662 515.257 138.78 515.621 137.744C515.985 136.708 516.167 135.56 516.167 134.3C516.167 133.04 515.985 131.892 515.621 130.856C515.257 129.82 514.739 128.938 514.067 128.21C513.423 127.482 512.639 126.922 511.715 126.53C510.791 126.11 509.741 125.9 508.565 125.9H502.517L503.609 124.556V144.128ZM528.913 149V119.6H549.409V125.69H535.843V142.91H549.829V149H528.913ZM532.273 136.946V131.15H547.519V136.946H532.273ZM565.727 149.42C563.795 149.42 562.045 149.196 560.477 148.748C558.937 148.272 557.565 147.6 556.361 146.732C555.157 145.836 554.079 144.786 553.127 143.582L557.453 138.668C558.853 140.544 560.253 141.804 561.653 142.448C563.081 143.092 564.551 143.414 566.063 143.414C566.819 143.414 567.505 143.316 568.121 143.12C568.737 142.924 569.213 142.644 569.549 142.28C569.885 141.888 570.053 141.412 570.053 140.852C570.053 140.432 569.941 140.054 569.717 139.718C569.521 139.382 569.241 139.088 568.877 138.836C568.513 138.584 568.079 138.36 567.575 138.164C567.071 137.94 566.539 137.758 565.979 137.618C565.419 137.45 564.845 137.31 564.257 137.198C562.633 136.834 561.219 136.386 560.015 135.854C558.811 135.322 557.803 134.678 556.991 133.922C556.207 133.138 555.619 132.256 555.227 131.276C554.835 130.268 554.639 129.148 554.639 127.916C554.639 126.6 554.933 125.396 555.521 124.304C556.137 123.184 556.949 122.232 557.957 121.448C558.993 120.636 560.183 120.02 561.527 119.6C562.871 119.152 564.271 118.928 565.727 118.928C567.659 118.928 569.311 119.138 570.683 119.558C572.083 119.95 573.273 120.524 574.253 121.28C575.261 122.036 576.115 122.946 576.815 124.01L572.405 128.252C571.817 127.524 571.173 126.922 570.473 126.446C569.801 125.97 569.073 125.606 568.289 125.354C567.533 125.102 566.749 124.976 565.937 124.976C565.097 124.976 564.369 125.088 563.753 125.312C563.165 125.508 562.703 125.802 562.367 126.194C562.031 126.558 561.863 127.006 561.863 127.538C561.863 128.014 562.003 128.42 562.283 128.756C562.563 129.092 562.941 129.4 563.417 129.68C563.893 129.932 564.439 130.156 565.055 130.352C565.671 130.52 566.315 130.66 566.987 130.772C568.527 131.08 569.913 131.486 571.145 131.99C572.405 132.494 573.483 133.11 574.379 133.838C575.303 134.566 576.003 135.434 576.479 136.442C576.983 137.422 577.235 138.57 577.235 139.886C577.235 141.93 576.731 143.666 575.723 145.094C574.743 146.494 573.385 147.572 571.649 148.328C569.941 149.056 567.967 149.42 565.727 149.42ZM582.014 149V142.994H586.97V125.606H582.014V119.6H599.108V125.606H594.11V142.994H599.108V149H582.014ZM618.934 149.42C616.582 149.42 614.454 149.042 612.55 148.286C610.646 147.53 609.008 146.466 607.636 145.094C606.264 143.722 605.214 142.112 604.486 140.264C603.758 138.388 603.394 136.358 603.394 134.174C603.394 131.99 603.772 129.988 604.528 128.168C605.312 126.32 606.418 124.71 607.846 123.338C609.274 121.966 610.954 120.902 612.886 120.146C614.846 119.39 616.974 119.012 619.27 119.012C620.894 119.012 622.42 119.222 623.848 119.642C625.304 120.062 626.62 120.636 627.796 121.364C628.972 122.092 629.966 122.932 630.778 123.884L626.452 128.462C625.752 127.79 625.024 127.23 624.268 126.782C623.54 126.334 622.756 125.984 621.916 125.732C621.076 125.452 620.18 125.312 619.228 125.312C617.996 125.312 616.862 125.536 615.826 125.984C614.818 126.432 613.922 127.062 613.138 127.874C612.382 128.658 611.794 129.596 611.374 130.688C610.954 131.752 610.744 132.914 610.744 134.174C610.744 135.434 610.968 136.61 611.416 137.702C611.864 138.794 612.48 139.746 613.264 140.558C614.048 141.342 614.972 141.972 616.036 142.448C617.128 142.896 618.29 143.12 619.522 143.12C620.39 143.12 621.202 142.98 621.958 142.7C622.742 142.42 623.414 142.042 623.974 141.566C624.534 141.09 624.982 140.53 625.318 139.886C625.654 139.214 625.822 138.5 625.822 137.744V136.652L626.746 138.08H618.64V132.494H632.458C632.514 132.802 632.556 133.222 632.584 133.754C632.612 134.286 632.626 134.804 632.626 135.308C632.654 135.812 632.668 136.19 632.668 136.442C632.668 138.346 632.318 140.096 631.618 141.692C630.946 143.26 629.994 144.618 628.762 145.766C627.53 146.914 626.074 147.81 624.394 148.454C622.714 149.098 620.894 149.42 618.934 149.42ZM638.137 149V119.6H644.521L659.935 140.6L658.549 140.39C658.409 139.466 658.297 138.584 658.213 137.744C658.129 136.904 658.045 136.078 657.961 135.266C657.905 134.454 657.849 133.628 657.793 132.788C657.765 131.948 657.737 131.038 657.709 130.058C657.709 129.078 657.709 128.014 657.709 126.866V119.6H664.639V149H658.171L642.085 127.328L644.227 127.622C644.367 128.966 644.479 130.114 644.563 131.066C644.675 131.99 644.759 132.816 644.815 133.544C644.899 134.272 644.955 134.93 644.983 135.518C645.011 136.106 645.025 136.694 645.025 137.282C645.053 137.842 645.067 138.472 645.067 139.172V149H638.137ZM698.867 149.42C696.627 149.42 694.583 149.042 692.735 148.286C690.887 147.53 689.277 146.466 687.905 145.094C686.533 143.722 685.469 142.112 684.713 140.264C683.957 138.416 683.579 136.386 683.579 134.174C683.579 131.962 683.957 129.932 684.713 128.084C685.469 126.236 686.533 124.626 687.905 123.254C689.277 121.882 690.887 120.818 692.735 120.062C694.583 119.306 696.613 118.928 698.825 118.928C701.037 118.928 703.067 119.306 704.915 120.062C706.763 120.818 708.373 121.882 709.745 123.254C711.117 124.626 712.167 126.236 712.895 128.084C713.651 129.932 714.029 131.962 714.029 134.174C714.029 136.358 713.651 138.388 712.895 140.264C712.167 142.112 711.117 143.722 709.745 145.094C708.373 146.466 706.763 147.53 704.915 148.286C703.067 149.042 701.051 149.42 698.867 149.42ZM698.825 142.7C699.973 142.7 701.023 142.49 701.975 142.07C702.955 141.65 703.795 141.062 704.495 140.306C705.223 139.522 705.783 138.612 706.175 137.576C706.567 136.54 706.763 135.406 706.763 134.174C706.763 132.942 706.567 131.808 706.175 130.772C705.783 129.736 705.223 128.84 704.495 128.084C703.795 127.3 702.955 126.698 701.975 126.278C701.023 125.858 699.973 125.648 698.825 125.648C697.677 125.648 696.613 125.858 695.633 126.278C694.681 126.698 693.841 127.3 693.113 128.084C692.385 128.84 691.825 129.736 691.433 130.772C691.069 131.808 690.887 132.942 690.887 134.174C690.887 135.406 691.069 136.554 691.433 137.618C691.825 138.654 692.385 139.55 693.113 140.306C693.841 141.062 694.681 141.65 695.633 142.07C696.613 142.49 697.677 142.7 698.825 142.7ZM719.553 149V119.6H725.937L741.351 140.6L739.965 140.39C739.825 139.466 739.713 138.584 739.629 137.744C739.545 136.904 739.461 136.078 739.377 135.266C739.321 134.454 739.265 133.628 739.209 132.788C739.181 131.948 739.153 131.038 739.125 130.058C739.125 129.078 739.125 128.014 739.125 126.866V119.6H746.055V149H739.587L723.501 127.328L725.643 127.622C725.783 128.966 725.895 130.114 725.979 131.066C726.091 131.99 726.175 132.816 726.231 133.544C726.315 134.272 726.371 134.93 726.399 135.518C726.427 136.106 726.441 136.694 726.441 137.282C726.469 137.842 726.483 138.472 726.483 139.172V149H719.553ZM773.269 149V125.9H764.533V119.6H789.355V125.9H780.409V149H773.269ZM793.819 149V142.994H798.775V125.606H793.819V119.6H810.913V125.606H805.915V142.994H810.913V149H793.819ZM817.704 149V119.6H824.088L834.798 137.03L830.22 136.988L841.056 119.6H847.188V149H840.258V139.844C840.258 137.324 840.314 135.056 840.426 133.04C840.566 131.024 840.79 129.022 841.098 127.034L841.896 129.218L833.748 141.86H830.976L822.996 129.302L823.794 127.034C824.102 128.91 824.312 130.842 824.424 132.83C824.564 134.79 824.634 137.128 824.634 139.844V149H817.704ZM854.577 149V119.6H875.073V125.69H861.507V142.91H875.493V149H854.577ZM857.937 136.946V131.15H873.183V136.946H857.937Z" fill="white"/>
<path d="M84.6761 21.5664C86.0639 22.2893 86.7093 23.1921 87.6593 24.4479C88.5533 25.4964 89.4905 26.2843 90.5615 27.1327C92.9956 29.1283 95.1479 31.3327 97.3064 33.642C99.5763 36.0586 101.853 38.4098 104.317 40.6117C105.382 41.5799 106.369 42.6163 107.354 43.671C108.655 45.0422 109.96 46.3675 111.368 47.6182C112.873 48.9582 114.273 50.3906 115.662 51.8578C117.877 54.1935 120.173 56.3831 122.612 58.4622C122.894 58.7046 123.175 58.947 123.465 59.1968C123.714 59.406 123.963 59.6153 124.219 59.8309C125.552 61.2302 125.879 62.597 125.887 64.529C125.892 65.1714 125.892 65.1714 125.898 65.8267C125.898 66.5263 125.898 66.5263 125.897 67.2401C125.9 67.734 125.903 68.2278 125.906 68.7367C125.915 70.3708 125.916 72.0048 125.917 73.6389C125.92 74.7739 125.923 75.9089 125.926 77.0439C125.932 79.4236 125.933 81.8032 125.933 84.1829C125.933 87.2338 125.945 90.2845 125.961 93.3354C125.971 95.6796 125.972 98.0237 125.972 100.368C125.973 101.493 125.977 102.618 125.984 103.743C125.993 105.315 125.99 106.887 125.985 108.46C125.99 108.925 125.995 109.39 126 109.87C125.982 111.901 125.956 113.054 124.919 114.815C122.949 116.684 121.132 116.773 118.532 116.792C118.227 116.794 117.921 116.797 117.606 116.799C116.621 116.805 115.637 116.802 114.652 116.797C114.152 116.797 114.152 116.797 113.642 116.797C100.732 116.769 100.732 116.769 98.822 114.78C98.7717 114.089 98.7516 113.396 98.744 112.704C98.738 112.262 98.7319 111.819 98.7257 111.364C98.7186 110.64 98.7186 110.64 98.7115 109.901C98.6967 108.881 98.6818 107.861 98.6667 106.841C98.6456 105.232 98.6256 103.622 98.6079 102.013C98.5899 100.461 98.5667 98.9091 98.5431 97.3571C98.5393 96.8837 98.5355 96.4103 98.5316 95.9226C98.6418 90.3943 98.6418 90.3943 96.4924 85.7073C91.6424 84.1705 85.7909 84.7863 80.7748 84.7515C80.2066 84.7454 79.6384 84.7392 79.053 84.7329C78.5126 84.7324 77.9722 84.7319 77.4155 84.7314C76.6911 84.7285 76.6911 84.7285 75.9521 84.7256C74.4189 84.8518 73.2747 85.0981 71.8775 85.7749C70.6665 87.4747 70.3606 88.6998 70.3503 90.7977C70.3443 91.3253 70.3383 91.853 70.3322 92.3966C70.3321 92.962 70.3321 93.5273 70.332 94.1098C70.3261 94.6939 70.3201 95.278 70.314 95.8799C70.2988 97.4289 70.2887 98.9777 70.2819 100.527C70.2721 102.71 70.2574 104.894 70.2364 107.077C70.2255 108.239 70.2188 109.401 70.2168 110.562C70.2122 111.088 70.2077 111.615 70.203 112.157C70.201 112.619 70.1991 113.082 70.1971 113.558C70.0784 114.809 69.7958 115.58 69.183 116.651C66.4676 116.674 63.7523 116.691 61.0369 116.702C60.1154 116.707 59.1938 116.714 58.2723 116.722C44.8862 116.837 44.8862 116.837 42.2385 114.312C42.0137 113.352 42.0137 113.352 42.0134 112.229C42.009 111.803 42.0046 111.377 42 110.938C42.0043 110.471 42.0087 110.004 42.0132 109.524C42.0107 109.031 42.0083 108.539 42.0058 108.032C42.0002 106.4 42.0076 104.768 42.0157 103.135C42.0156 102.002 42.0149 100.869 42.0137 99.7352C42.0131 97.3566 42.0187 94.9782 42.0289 92.5996C42.0417 89.5535 42.0405 86.5076 42.0347 83.4615C42.0316 81.1193 42.0351 78.7771 42.0407 76.4349C42.0427 75.3121 42.0429 74.1892 42.0411 73.0664C42.0398 71.4941 42.0472 69.9222 42.057 68.3499C42.055 67.8871 42.053 67.4242 42.0509 66.9474C42.0829 63.8367 42.3964 61.4131 44.4751 59.0214C44.8021 58.7415 45.1292 58.4617 45.4662 58.1734C45.8257 57.858 46.1852 57.5426 46.5556 57.2177C46.9093 56.9156 47.263 56.6134 47.6274 56.3021C50.1665 54.0639 52.532 51.6897 54.8547 49.2117C56.115 47.8969 57.4569 46.691 58.8047 45.4751C60.4133 44.0009 61.9601 42.4593 63.5134 40.9225C66.5466 37.9355 69.5819 34.954 72.7563 32.1289C74.9092 30.2105 76.9112 28.1688 78.8888 26.0577C82.9566 21.7455 82.9566 21.7455 84.6761 21.5664Z" fill="#ffffffff"/>
<path d="M8.11409 69.1855C9.99272 69.6437 10.7478 70.4256 11.9527 71.9569C13.3734 74.4919 13.8899 77.3589 14.4657 80.2056C15.0567 79.8993 15.6476 79.5931 16.2565 79.2776C16.2565 78.6651 16.2565 78.0526 16.2565 77.4216C16.8474 77.4216 17.4384 77.4216 18.0472 77.4216C20.7571 81.2546 21.2749 85.8511 22.0765 90.4136C23.0418 90.4136 23.8334 90.2064 24.7626 89.9496C26.7976 92.5183 27.2096 95.2604 27.7845 98.4756C27.8832 98.9852 27.9819 99.4948 28.0836 100.02C28.5907 102.742 28.909 105.274 28.7918 108.046C27.4622 107.816 27.4622 107.816 26.1057 107.582C27.0392 109.308 28.0843 110.712 29.3794 112.164C31.3924 114.428 31.3924 114.428 32.0869 115.348C33.7031 117.457 35.2333 118.602 37.6057 119.675C37.9344 119.829 38.263 119.984 38.6016 120.144C41.3807 121.413 44.2291 122.351 47.1328 123.259C58.6757 126.905 68.1461 134.097 74.0086 145.166C74.1636 145.453 74.3185 145.741 74.4782 146.037C77.9507 152.564 81.5565 160.787 81.1717 168.366C80.4458 169.118 79.6426 168.896 78.6397 168.904C78.1959 168.909 77.7521 168.913 77.2948 168.918C76.8117 168.92 76.3286 168.922 75.8309 168.924C75.3378 168.927 74.8448 168.929 74.3368 168.932C73.2913 168.936 72.2458 168.939 71.2003 168.941C69.5976 168.946 67.9952 168.96 66.3926 168.975C65.3789 168.978 64.3652 168.98 63.3515 168.982C62.8702 168.988 62.3889 168.993 61.893 168.999C61.4464 168.998 60.9998 168.996 60.5396 168.995C60.1463 168.997 59.753 168.998 59.3477 169C58.1272 168.794 57.7484 168.434 56.9964 167.438C56.7357 166.856 56.4939 166.266 56.2689 165.669C54.3436 161.581 49.1142 159.756 45.3844 157.839C44.9809 157.629 44.9809 157.629 44.5692 157.415C40.0613 155.077 35.4884 152.986 30.7794 151.112C26.1934 149.216 23.879 146.486 21.4049 142.15C21.1939 141.785 20.9828 141.42 20.7654 141.044C17.6412 135.556 15.3499 129.748 13.1226 123.822C12.8981 123.256 12.6737 122.691 12.4424 122.109C12.2329 121.573 12.0234 121.038 11.8075 120.487C11.6188 120.011 11.4301 119.536 11.2357 119.046C10.8737 117.752 10.8727 117.172 11.3319 115.934C13.1884 116.704 14.4959 118.096 15.9207 119.501C16.4403 120.006 16.9603 120.511 17.4806 121.016C17.7314 121.26 17.9821 121.503 18.2405 121.754C19.3972 122.867 20.5924 123.931 21.7879 124.998C22.486 125.642 23.136 126.313 23.7833 127.012C24.716 128.093 24.716 128.093 26.1057 128.462C26.0185 127.557 26.0185 127.557 25.658 126.606C25.3971 126.476 25.1363 126.347 24.8675 126.214C21.4702 124.392 18.9679 120.044 16.7321 116.891C14.3755 113.569 11.8365 110.566 9.09342 107.582C8.09178 106.483 7.09504 105.38 6.09948 104.276C5.7437 103.888 5.7437 103.888 5.38073 103.492C3.72113 101.654 3.72113 101.654 3.72113 100.622C3.46258 100.516 3.20404 100.411 2.93767 100.303C1.62113 99.5066 0.957637 98.7059 0.139597 97.3736C-0.121417 95.7166 -0.0738195 94.9454 0.783153 93.5166C2.41912 92.4 4.02078 92.2519 5.95958 92.2696C6.98088 92.4961 6.98088 92.4961 7.75035 92.7336C7.90272 91.04 7.90272 91.04 7.13477 89.6016C4.92444 86.4296 5.26259 81.4835 5.12016 77.7406C5.08784 77.1553 5.05552 76.57 5.02223 75.967C4.98933 75.125 4.98933 75.125 4.95577 74.266C4.93334 73.758 4.9109 73.25 4.88779 72.7266C5.1669 70.6112 6.16404 69.7245 8.11409 69.1855Z" fill="#ffffffff"/>
<path d="M166.431 93.4141C167.596 94.5095 167.905 95.3995 168 97.0195C167.546 100.222 164.258 102.698 162.129 104.837C161.002 105.992 159.97 107.205 158.937 108.449C158.182 109.329 157.413 110.185 156.628 111.036C154.142 113.733 151.852 116.347 149.865 119.463C148.517 121.322 146.866 122.861 145.222 124.438C144.088 125.693 143.446 126.856 142.78 128.417C145.181 126.536 147.427 124.608 149.525 122.372C151.405 120.397 153.35 118.614 155.767 117.364C156.21 117.364 156.654 117.364 157.11 117.364C156.08 120.709 154.835 123.923 153.5 127.151C153.285 127.671 153.07 128.192 152.848 128.728C151.421 132.153 149.95 135.553 148.406 138.924C148.227 139.319 148.047 139.715 147.863 140.122C146.938 142.108 145.989 143.786 144.571 145.458C144.37 145.756 144.169 146.053 143.963 146.36C141.505 149.732 137.896 151.145 134.271 152.827C133.438 153.219 132.605 153.61 131.771 154.002C130.5 154.599 129.228 155.193 127.953 155.78C117.608 159.884 117.608 159.884 110.414 167.717C110.089 168.487 110.089 168.487 109.641 168.947C108.926 168.99 108.209 169.001 107.493 169C107.036 169 106.579 169 106.108 168.999C105.611 168.997 105.113 168.995 104.601 168.992C104.095 168.992 103.588 168.991 103.067 168.99C101.442 168.988 99.8177 168.982 98.1932 168.976C97.0949 168.974 95.9966 168.972 94.8983 168.97C92.1994 168.965 89.5005 168.957 86.8016 168.947C86.6829 156.532 93.2598 145.171 101.132 136.247C101.491 135.834 101.85 135.421 102.22 134.995C105.094 131.855 108.287 129.653 111.88 127.496C112.276 127.246 112.673 126.995 113.082 126.737C116.603 124.703 120.407 123.75 124.309 122.757C128.601 121.621 132.48 119.883 135.727 116.702C136.093 116.345 136.46 115.988 136.838 115.62C137.173 115.284 137.508 114.947 137.854 114.6C138.129 114.335 138.405 114.069 138.688 113.796C140.233 112.273 141.581 110.646 142.92 108.929C144.939 106.354 147.067 103.882 149.497 101.704C149.793 101.704 150.089 101.704 150.393 101.704C150.497 101.442 150.601 101.179 150.708 100.909C153.269 96.2916 161.299 91.5375 166.431 93.4141Z" fill="#ffffffff"/>
<path d="M86.4559 6.10421C88.7514 7.25605 90.3797 9.23034 92.1388 11.1184C93.0077 12.0299 93.8904 12.8721 94.8285 13.7031C96.5152 15.2152 98.0689 16.8442 99.6287 18.4963C101.152 20.1093 102.663 21.7048 104.317 23.1726C106.248 24.8859 107.997 26.7797 109.774 28.6625C111.31 30.2823 112.884 31.8102 114.548 33.2868C115.802 34.4629 116.977 35.7136 118.16 36.9676C119.59 38.4841 121.014 39.9741 122.57 41.3516C124.619 43.1748 126.476 45.1968 128.366 47.197C129.989 48.9076 131.644 50.5362 133.4 52.0978C135.828 54.3327 138.051 56.747 140.04 59.4136C140.335 59.568 140.63 59.7223 140.933 59.8813C140.933 60.3442 140.933 60.8072 140.933 61.2842C139.626 61.9685 138.453 61.8315 136.998 61.8395C136.452 61.8461 135.906 61.8527 135.343 61.8596C132.181 61.6403 130.67 60.1114 128.486 57.8939C127.889 57.2989 127.292 56.704 126.695 56.1092C126.391 55.8041 126.086 55.499 125.773 55.1847C124.335 53.7468 122.88 52.328 121.425 50.9087C121.148 50.6372 120.87 50.3656 120.585 50.0859C118.839 48.3788 117.08 46.6882 115.313 45.0049C113.386 43.1625 111.534 41.2623 109.7 39.3185C108.605 38.1868 107.455 37.1418 106.288 36.0926C104.523 34.4626 102.816 32.768 101.099 31.0827C98.8526 28.8786 96.5867 26.6982 94.3087 24.5298C93.1506 23.4031 92.0347 22.2432 90.9213 21.0683C90.0385 20.1408 89.1444 19.2275 88.2421 18.321C88.0153 18.0822 87.7885 17.8435 87.5548 17.5976C86.5362 16.5856 85.8843 15.9418 84.4518 15.8641C82.9498 16.571 81.7885 17.5685 80.5672 18.7009C80.3136 18.9307 80.0599 19.1605 79.7986 19.3973C77.8039 21.2255 75.9266 23.1611 74.075 25.1472C72.8748 26.4063 71.6096 27.5605 70.3196 28.7165C69.2124 29.7399 68.1898 30.8395 67.1555 31.9424C66.3324 32.7892 65.4785 33.5788 64.6036 34.3664C63.3496 35.4974 62.1645 36.6678 61.0034 37.9028C59.9109 39.0624 58.8059 40.1729 57.6265 41.2347C55.8424 42.8423 54.1247 44.5182 52.4076 46.2032C49.9165 48.6469 47.415 51.0772 44.8932 53.4861C43.9723 54.3693 43.0562 55.2563 42.1442 56.1494C41.9049 56.3826 41.6655 56.6157 41.4189 56.856C40.7554 57.5027 40.0936 58.1512 39.4319 58.7999C36.6892 61.2677 34.9257 61.4738 31.3925 61.3718C30.7686 61.3623 30.7686 61.3623 30.1322 61.3527C29.1101 61.3362 28.0885 61.3132 27.0667 61.2842C27.439 59.2394 28.4869 58.311 29.9412 56.9878C30.1813 56.7635 30.4214 56.5391 30.6688 56.308C31.4003 55.6252 32.1358 54.9474 32.8716 54.2698C33.6726 53.5207 34.4728 52.7707 35.2717 52.0193C35.8088 51.5166 35.8088 51.5166 36.3567 51.0037C37.2346 50.1595 38.0715 49.292 38.8999 48.3952C40.0162 47.2554 40.0162 47.2554 40.9093 47.2554C41.3941 45.7321 41.4172 44.6068 41.4262 43.0037C41.4331 42.1236 41.4331 42.1236 41.4401 41.2258C41.4424 40.756 41.4424 40.756 41.4448 40.2768C41.45 39.2962 41.4587 38.3156 41.4685 37.3351C41.496 34.5475 41.5202 31.76 41.535 28.9724C41.5444 27.2667 41.5601 25.5611 41.58 23.8555C41.5864 23.205 41.5902 22.5545 41.5917 21.904C41.5938 20.996 41.6049 20.0881 41.6164 19.1803C41.62 18.6632 41.6236 18.1462 41.6273 17.6135C41.6851 17.2104 41.7428 16.8073 41.8023 16.392C43.2796 15.3607 43.7527 15.3369 45.4723 15.3325C45.9253 15.3313 46.3783 15.3301 46.8451 15.3289C47.3176 15.3325 47.7902 15.3361 48.2771 15.3398C48.7497 15.3362 49.2223 15.3326 49.7092 15.3289C50.3887 15.3307 50.3887 15.3307 51.0819 15.3325C51.4966 15.3336 51.9114 15.3346 52.3387 15.3357C53.4123 15.4567 53.4123 15.4567 54.7519 16.392C54.9449 17.7001 54.9449 17.7001 54.9804 19.3475C54.9962 19.9353 55.012 20.523 55.0283 21.1285C55.0435 22.0535 55.0435 22.0535 55.0589 22.9972C55.0737 23.6238 55.0891 24.2503 55.1051 24.8769C55.142 26.413 55.1729 27.9491 55.1984 29.4855C58.4308 29.4855 60.7454 26.4418 62.9849 24.1754C63.6478 23.4752 64.3078 22.772 64.9646 22.0656C66.1563 20.8154 67.4179 19.6698 68.6974 18.5201C69.3661 17.9063 70.0031 17.255 70.6318 16.5966C71.4919 15.6958 72.3501 14.8942 73.2831 14.0831C74.3145 13.1749 75.0723 12.3594 75.9344 11.2481C78.7727 7.76825 81.9993 5.47374 86.4559 6.10421Z" fill="#ffffffff"/>
<path d="M84.8977 21.5664C86.2925 22.2986 86.9412 23.2132 87.896 24.4852C88.7945 25.5473 89.7365 26.3455 90.8128 27.2049C93.2593 29.2263 95.4226 31.4592 97.5919 33.7985C99.8734 36.2463 102.161 38.628 104.638 40.8585C105.708 41.8391 106.7 42.889 107.691 43.9573C109.016 45.3659 110.349 46.7266 111.781 48.0149C113.163 49.2692 114.518 50.5462 115.843 51.8652C116.193 52.2091 116.543 52.5531 116.903 52.9074C117.621 53.9088 117.621 53.9088 117.591 54.9547C117.169 55.8044 117.169 55.8044 115.815 56.2782C114.714 56.3324 113.625 56.3611 112.523 56.368C112.022 56.3739 112.022 56.3739 111.51 56.3799C110.784 56.3882 110.058 56.3954 109.331 56.4016C108.177 56.4116 107.023 56.4244 105.868 56.438C103.41 56.4662 100.952 56.4909 98.4946 56.5152C95.6604 56.5434 92.8262 56.5731 89.992 56.6061C88.8638 56.6185 87.7357 56.6285 86.6075 56.6383C83.0972 56.6749 79.6312 56.8045 76.1317 57.122C73.6687 57.3063 71.207 57.2841 68.7389 57.2723C68.1962 57.2716 67.6535 57.2709 67.0944 57.2703C65.3841 57.2676 63.6737 57.2617 61.9634 57.2556C60.7942 57.2532 59.6249 57.2511 58.4557 57.2491C55.6098 57.244 52.7639 57.2361 49.918 57.226C49.6602 56.3292 49.6602 56.3292 49.4666 55.3305C49.9796 54.5154 49.9796 54.5154 50.7766 53.7071C51.0672 53.4074 51.3578 53.1078 51.6573 52.7991C51.9677 52.4909 52.2781 52.1827 52.5979 51.8652C52.8926 51.5625 53.1872 51.2599 53.4909 50.948C55.255 49.1505 57.0783 47.4381 58.9358 45.7484C60.5382 44.2665 62.0795 42.717 63.6278 41.1733C66.6763 38.1476 69.7269 35.1275 72.9175 32.2658C75.0813 30.3225 77.0934 28.2544 79.081 26.1158C83.1694 21.7479 83.1694 21.7479 84.8977 21.5664Z" fill="#ffffffff"/>
<path d="M100.368 85.0314C100.978 85.0155 100.978 85.0155 101.601 84.9993C103.475 84.9659 105.349 84.9388 107.224 84.9207C108.21 84.9082 109.196 84.889 110.183 84.8628C111.606 84.8255 113.029 84.81 114.453 84.799C114.89 84.7835 115.327 84.7679 115.778 84.752C118.22 84.7594 119.52 85.0436 121.35 86.775C121.617 87.072 121.883 87.3691 122.158 87.6752C123.181 88.588 123.967 88.6648 125.276 88.8998C125.839 90.0635 125.801 90.8606 125.818 92.1625C125.826 92.646 125.833 93.1296 125.841 93.6277C125.861 95.8377 125.879 98.0475 125.89 100.258C125.898 101.425 125.91 102.592 125.927 103.758C125.952 105.438 125.962 107.117 125.969 108.797C125.979 109.32 125.989 109.842 126 110.38C125.99 113.993 125.99 113.993 124.665 115.553C121.616 117.135 118.323 116.763 114.991 116.767C114.482 116.769 114.482 116.769 113.962 116.77C109.011 116.774 104.162 116.648 99.3638 115.239C98.6445 114.495 98.8382 113.729 98.8231 112.697C98.8155 112.255 98.8079 111.813 98.8001 111.358C98.7939 110.876 98.7877 110.393 98.7813 109.896C98.7688 109.151 98.7688 109.151 98.756 108.392C98.7292 106.794 98.7053 105.196 98.6819 103.598C98.6508 101.513 98.618 99.4285 98.5825 97.3438C98.5741 96.8456 98.5658 96.3473 98.5573 95.8339C98.4974 92.7302 98.3555 89.6623 98.0471 86.5733C98.0315 86.2546 98.016 85.9358 98 85.6074C98.7049 84.8781 99.3867 85.0556 100.368 85.0314Z" fill="#ffffffff"/>
<path d="M86.1898 6.14095C88.4964 7.29203 90.1327 9.26502 91.9004 11.1518C92.7736 12.0628 93.6606 12.9044 94.6032 13.7349C96.2982 15.2459 97.8595 16.8739 99.4269 18.5249C100.957 20.1369 102.477 21.7313 104.138 23.1981C106.078 24.9103 107.836 26.8028 109.622 28.6844C111.166 30.3031 112.747 31.83 114.419 33.3057C115.679 34.4809 116.86 35.7308 118.049 36.984C119.486 38.4995 120.917 39.9885 122.48 41.3651C124.54 43.1871 126.405 45.2078 128.305 47.2067C129.935 48.9161 131.599 50.5436 133.363 52.1043C135.803 54.3377 138.037 56.7504 140.036 59.4153C140.332 59.5695 140.628 59.7237 140.933 59.8826C140.933 60.3452 140.933 60.8079 140.933 61.2845C139.62 61.9684 138.441 61.8315 136.979 61.8395C136.43 61.8461 135.881 61.8527 135.316 61.8596C132.138 61.6404 130.62 60.1126 128.425 57.8965C127.825 57.3019 127.225 56.7074 126.625 56.113C126.32 55.8081 126.014 55.5032 125.699 55.1891C124.254 53.7522 122.792 52.3342 121.33 50.9159C121.051 50.6446 120.772 50.3732 120.485 50.0936C118.731 48.3877 116.963 46.6982 115.188 45.016C113.252 43.1749 111.39 41.2759 109.548 39.3333C108.447 38.2024 107.292 37.1581 106.119 36.1096C104.346 34.4806 102.63 32.7872 100.905 31.103C98.647 28.9003 96.37 26.7214 94.0809 24.5544C92.9171 23.4284 91.7958 22.2693 90.6769 21.0951C89.7898 20.1683 88.8914 19.2556 87.9846 18.3496C87.6428 17.9918 87.6428 17.9918 87.294 17.6268C85.9236 16.2645 85.9236 16.2645 84.1144 15.951C83.0303 16.3657 83.0303 16.3657 82.2225 17.1481C81.0431 17.9709 80.4518 17.969 79.0488 17.8915C78.4259 17.8594 78.4259 17.8594 77.7903 17.8267C77.36 17.7968 76.9296 17.767 76.4862 17.7363C76.0524 17.7155 75.6186 17.6947 75.1716 17.6733C71.9528 17.4837 71.9528 17.4837 70.9333 16.422C73.0569 13.7049 75.3074 11.3169 77.9165 9.0909C78.3336 8.73247 78.7506 8.37404 79.1803 8.00475C81.5077 6.16605 83.2946 5.73364 86.1898 6.14095Z" fill="#ffffffff"/>
<path d="M53.7196 93.0195C54.1827 93.0222 54.6458 93.0249 55.123 93.0277C56.5964 93.0384 58.0693 93.0624 59.5426 93.0869C60.5439 93.0965 61.5452 93.1052 62.5465 93.1131C64.996 93.1342 67.4453 93.1662 69.8946 93.2067C69.9168 96.2433 69.9321 99.2799 69.9427 102.317C69.9471 103.35 69.9531 104.383 69.9607 105.416C69.9713 106.901 69.9763 108.385 69.9802 109.87C69.9847 110.332 69.9892 110.794 69.9939 111.27C69.994 111.917 69.994 111.917 69.9941 112.578C69.996 112.957 69.998 113.336 70 113.726C69.8823 114.898 69.5523 115.678 69.0182 116.693C66.3687 116.717 63.7193 116.734 61.0698 116.746C60.1706 116.75 59.2714 116.757 58.3722 116.765C46.0468 116.877 46.0468 116.877 43.1656 114.776C43.0266 113.569 42.971 112.481 42.9756 111.273C42.9733 110.926 42.971 110.58 42.9686 110.223C42.9658 109.49 42.9664 108.757 42.9701 108.024C42.9739 106.903 42.9613 105.782 42.9473 104.661C42.9466 103.949 42.9469 103.237 42.9482 102.525C42.9433 102.19 42.9384 101.854 42.9333 101.508C42.9457 100.558 42.9457 100.558 43.1656 98.9584C44.0179 98.0896 44.0179 98.0896 44.9183 97.5205C45.2165 96.9422 45.2165 96.9422 45.5208 96.3522C47.5667 92.823 50.219 92.9419 53.7196 93.0195Z" fill="#ffffffff"/>
<path d="M7.95926 69.1855C9.88188 69.641 10.6538 70.417 11.8785 71.9473C14.8295 77.0169 14.9752 83.3626 14.9268 89.0803C14.9247 89.5464 14.9227 90.0125 14.9205 90.4926C14.9152 91.6319 14.9077 92.7711 14.8982 93.9103C12.9728 93.571 11.6965 92.9968 10.0438 91.9265C9.61387 91.6532 9.18393 91.3798 8.74097 91.0982C6.62768 89.5074 5.98481 88.0733 5.4852 85.5201C5.11232 82.9129 5.00684 80.2964 4.90383 77.6667C4.87085 77.0865 4.83787 76.5063 4.80389 75.9085C4.78151 75.352 4.75913 74.7955 4.73607 74.2221C4.71317 73.7185 4.69028 73.2149 4.66669 72.696C4.95153 70.5989 5.96915 69.7199 7.95926 69.1855Z" fill="#ffffffff"/>
<path d="M162.717 69.5944C163.594 70.4897 163.261 72.1321 163.268 73.3518C163.271 73.6847 163.273 74.0177 163.276 74.3608C163.28 75.0688 163.283 75.7768 163.285 76.4847C163.29 77.5573 163.304 78.6295 163.318 79.702C163.371 86.5329 163.371 86.5329 161.8 89.2341C160.753 90.2641 159.629 91.0353 158.39 91.806C158.084 92.0122 157.778 92.2183 157.462 92.4307C155.794 93.5167 155.156 93.9103 153.09 93.9103C152.962 90.1067 153.374 86.4669 153.943 82.7194C154.093 81.7244 154.229 80.7281 154.366 79.7312C154.874 76.2306 155.439 72.9018 157.674 70.062C159.599 68.7531 160.48 69.1897 162.717 69.5944Z" fill="#ffffffff"/>
<path d="M150.58 77.4277C151.073 77.4277 151.566 77.4277 152.074 77.4277C152.167 88.2078 152.167 88.2078 151.949 92.8919C151.915 93.7314 151.915 93.7314 151.879 94.5879C151.303 97.4629 149.301 99.2822 147.094 101.237C146.601 101.083 146.108 100.929 145.6 100.77C145.838 97.1808 146.232 93.6663 146.868 90.12C147.088 88.6707 147.162 87.2635 147.218 85.8017C147.449 82.6246 148.899 80.1459 150.58 77.4277Z" fill="#ffffffff"/>
<path d="M23.3409 90.248C24.2086 90.377 24.2086 90.377 25.1989 90.6942C26.955 93.3928 27.5637 96.0598 28.1021 99.1705C28.1823 99.5927 28.2625 100.015 28.3452 100.45C28.7878 102.886 28.9999 105.175 28.9149 107.647C27.4611 107.497 27.0566 107.201 26.0408 106.141C24.367 103.813 24.3607 101.104 24.0086 98.3619C23.9442 97.8797 23.8798 97.3975 23.8135 96.9007C23.7527 96.4323 23.692 95.9639 23.6294 95.4813C23.5739 95.0553 23.5185 94.6292 23.4614 94.1903C23.3356 92.8693 23.3206 91.5739 23.3409 90.248Z" fill="#ffffffff"/>
<path d="M143.664 90.248C143.954 90.248 144.243 90.248 144.542 90.248C144.769 95.8853 145.035 102.754 141.91 107.647C141.62 107.647 141.331 107.647 141.032 107.647C140.767 102 140.851 95.2755 143.664 90.248Z" fill="#ffffffff"/>
<path d="M30.8407 103.066C31.131 103.066 31.4214 103.066 31.7206 103.066C33.7411 109.517 33.7411 109.517 33.4805 113.139C33.0449 113.139 32.6093 113.139 32.1606 113.139C31.1547 109.706 30.6469 106.673 30.8407 103.066Z" fill="#ffffffff"/>
<path d="M136.431 103.066C136.667 103.066 136.903 103.066 137.147 103.066C137.259 106.487 137.306 109.179 136.073 112.224C135.836 112.224 135.6 112.224 135.356 112.224C135.272 109.103 135.373 105.913 136.431 103.066Z" fill="#ffffffff"/>
<path d="M18.6666 79.2578C20.6651 81.075 20.9613 83.2776 21.5028 85.6679C21.603 86.0737 21.7033 86.4795 21.8066 86.8976C22.58 90.1984 22.58 90.1984 21.9079 92.078C20.71 90.4987 20.5653 89.5767 20.2873 87.7156C19.9931 85.875 19.6801 84.0822 19.1393 82.2848C18.6666 80.6823 18.6666 80.6823 18.6666 79.2578Z" fill="#ffffffff"/>
<path d="M143.118 90.248C143.321 90.248 143.524 90.248 143.733 90.248C143.733 92.9678 143.733 95.6875 143.733 98.4896C143.632 98.4896 143.53 98.4896 143.425 98.4896C143.324 96.6765 143.222 94.8633 143.118 92.9952C143.016 92.9952 142.914 92.9952 142.81 92.9952C142.797 92.2324 142.797 91.4688 142.81 90.7059C142.911 90.5548 143.013 90.4037 143.118 90.248Z" fill="#ffffffff"/>
</svg>
